<?xml version="1.0" standalone="no"?>
<!DOCTYPE svg PUBLIC "-//W3C//DTD SVG 1.1//EN" "http://www.w3.org/Graphics/SVG/1.1/DTD/svg11.dtd" >
<!--
2013-9-30: Created.
-->
<svg>
<metadata>
Created by iconfont
</metadata>
<defs>

<font id="hhicon" horiz-adv-x="1024" >
  <font-face
    font-family="hhicon"
    font-weight="500"
    font-stretch="normal"
    units-per-em="1024"
    ascent="896"
    descent="-128"
  />
    <missing-glyph />
    
    <glyph glyph-name="error" unicode="&#59091;" d="M913.26906 14.161789999999996L109.549022 14.161789999999996c-28.997428 0-46.325072 23.527856-46.325072 46.276976L63.22395 707.56021c0 28.967752 23.553439 46.278 46.325072 46.278l803.721061 0c28.997428 0 46.325072-23.529903 46.325072-46.278l0-647.121444C959.595154 31.471014999999966 936.041716 14.161789999999996 913.26906 14.161789999999996zM131.178645 82.11648500000001l760.460792 0L891.639436 685.883515 131.178645 685.883515 131.178645 82.11648500000001zM353.881796 469.541235c-7.246031 0-14.493086 2.76395-20.022009 8.292873l-73.618695 73.617671c-11.0558 11.057847-11.0558 28.986171 0 40.044018 11.057847 11.057847 28.986171 11.057847 40.044018 0l73.617671-73.617671c11.0558-11.057847 11.0558-28.986171 0-40.044018C368.374882 472.305185 361.127827 469.541235 353.881796 469.541235zM280.250822 469.529979c-7.246031 0-14.493086 2.76395-20.022009 8.292873-11.0558 11.057847-11.0558 28.986171 0 40.044018l73.617671 73.617671c11.057847 11.057847 28.986171 11.057847 40.044018 0 11.0558-11.057847 11.0558-28.986171 0-40.044018L300.272831 477.822852C294.743908 472.293929 287.496853 469.529979 280.250822 469.529979zM742.556003 469.519746c-7.246031 0-14.493086 2.76395-20.022009 8.292873l-73.618695 73.618695c-11.0558 11.057847-11.0558 28.986171 0 40.044018 11.057847 11.057847 28.986171 11.057847 40.044018 0l73.617671-73.617671c11.056823-11.057847 11.056823-28.986171 0-40.044018C757.049089 472.282672 749.802034 469.519746 742.556003 469.519746zM668.938332 469.529979c-7.246031 0-14.493086 2.76395-20.022009 8.292873-11.0558 11.057847-11.0558 28.986171 0 40.044018l73.618695 73.617671c11.057847 11.057847 28.986171 11.057847 40.044018 0 11.056823-11.057847 11.056823-28.986171 0-40.044018l-73.617671-73.618695C683.431417 472.293929 676.18334 469.529979 668.938332 469.529979zM760.546749 192.03492000000006L262.271332 192.03492000000006c-15.638165 0-28.314883 12.676717-28.314883 28.314883 0 15.638165 12.676717 28.314883 28.314883 28.314883l498.276441 0c15.638165 0 28.314883-12.676717 28.314883-28.314883C788.861632 204.711638 776.184915 192.03492000000006 760.546749 192.03492000000006zM549.928844 192.03492000000006l0-53.343929c0 0 0-38.369889 56.629765-38.369889l60.916395 0c0 0 56.629765 0 56.629765 38.369889l0 53.343929L549.928844 192.03492000000006z"  horiz-adv-x="1024" />

    
    <glyph glyph-name="empty" unicode="&#59092;" d="M958.6596875 607.3565625h0.0253125l-446.68875 223.33875-446.7084375-222.9309375v-447.1153125l446.7084375-223.3453125 446.7140625 223.3453125v446.7084375h-0.0496875zM511.99625 776.5865625l335.90625-168.380625-127.914375-64.486875-337.51875 167.8771875 129.526875 64.9903125zM323.9346875 679.9153125l341.8528125-164.7121875-153.815625-74.5021875-335.8771875 166.6565625 147.84 72.5578125zM121.12625 550.86h17.7534375l-17.7534375 0.6534375v27.9159375l362.960625-181.485v-390.8709375l-362.960625 181.48125v362.3071875zM902.8671875 523.5853125v-335.030625l-362.9615625-181.48125v390.8709375l362.9615625 181.485v-55.8440625z"  horiz-adv-x="1024" />

    
    <glyph glyph-name="attentionforbidfill" unicode="&#59089;" d="M37.792 352.352C126.4 158.656 316.992 30.24 512 30.24c70.016 0 139.36 17.088 203.68 47.552l-159.968 153.024C541.728 226.816 527.264 224 512 224c-88.224 0-160 71.776-160 160 0 12.832 1.92 25.152 4.768 37.12L172.576 597.312c-55.36-50.56-101.856-112.928-134.304-183.872-1.056-2.112-1.792-4.096-2.272-5.888-0.256-0.544-0.448-1.056-0.64-1.6-1.76-5.056-1.792-8.48-1.632-7.712-0.8-3.744-1.6-11.2-1.6-11.2-0.224-2.24-0.192-4.032 0.064-6.272 0 0 0.704-13.472 1.056-14.816M992 383.904c0 5.792-0.992 10.592-1.28 11.136-0.192 2.912-1.152 8.096-2.08 10.816-0.256 0.672-0.544 1.376-0.832 2.08-0.48 1.568-1.024 3.104-1.6 4.32C897.664 605.92 707.104 736 512 736c-69.952 0-139.232-16.96-203.456-47.296l158.752-151.872C481.568 541.056 496.384 544 512 544c88.224 0 160-71.776 160-160 0-13.184-2.048-25.824-5.088-38.08l184.544-176.512c55.264 50.592 101.568 112.832 133.792 183.392 1.376 2.496 2.24 5.28 2.848 7.328 0.256 0.608 0.48 1.408 0.672 1.984 1.536 4.48 1.856 8.448 1.728 8.448 0 0 0 0.032-0.032 0.032C991.04 373.664 992 378.336 992 383.904zM864 0c-7.968 0-15.904 2.944-22.112 8.864l-736 704C93.12 725.088 92.672 745.344 104.864 758.112 117.088 770.88 137.344 771.328 150.112 759.136l736-704c12.736-12.224 13.216-32.48 0.992-45.248C880.832 3.328 872.448 0 864 0z"  horiz-adv-x="1024" />

    
    <glyph glyph-name="attentionforbid" unicode="&#59090;" d="M605.376 405.472l61.696-59.04C670.016 358.56 672 371.008 672 384c0 88.224-71.776 160-160 160-15.424 0-30.016-2.88-44.16-6.976l61.44-58.784C566.944 471.36 596.832 442.528 605.376 405.472zM556.256 231.008l-61.376 58.752c-37.792 6.848-67.84 35.744-76.32 72.96l-61.632 58.944C353.984 409.504 352 397.024 352 384c0-88.224 71.776-160 160-160C527.456 224 542.08 226.912 556.256 231.008zM178.944 759.136C166.144 771.328 145.888 770.88 133.696 758.112 121.472 745.344 121.92 725.088 134.688 712.864l736-704C876.896 2.944 884.832 0 892.8 0c8.448 0 16.832 3.328 23.136 9.888 12.224 12.768 11.744 33.024-0.992 45.248L178.944 759.136zM512 96c-169.28 0-335.328 113.568-414.88 283.936-0.16 0.608-0.352 1.152-0.544 1.728-0.064 0.544-0.224 0.992-0.288 1.312C96.256 383.328 96 383.776 96 384.224L96 384.64c0 0.736 0.448 1.472 0.544 2.208 0.128 0.448 0.352 0.832 0.48 1.28 29.728 64.128 72 120.256 122.144 165.312L172.864 597.696c-55.488-50.656-102.08-113.152-134.624-184.256-1.056-2.112-1.792-4.096-2.272-5.888-0.256-0.544-0.448-1.056-0.64-1.6-1.76-5.056-1.76-8.48-1.632-7.712-0.8-3.744-1.6-11.2-1.6-11.2-0.224-2.24-0.192-4.032 0.064-6.272 0 0 0.704-13.472 1.056-14.816l4.544-13.632C126.4 158.656 316.992 30.24 512 30.24c69.824 0 138.976 17.792 203.104 47.936l-49.856 48.576C616.128 106.88 564.224 96 512 96zM992 383.904c0 5.792-0.992 10.592-1.28 11.136-0.192 2.912-1.152 8.096-2.08 10.816-0.256 0.672-0.544 1.376-0.832 2.08-0.48 1.568-1.024 3.104-1.6 4.32C897.664 605.92 707.104 736 512 736c-69.76 0-138.88-16.864-203.008-47.072l49.856-47.648C407.968 661.12 459.808 672 512 672c169.76 0 336.192-114.048 414.752-283.68 0.096-0.32 0.16-0.608 0.256-0.8 0.064-0.288 0.16-0.608 0.256-0.864 0.16-1.28 0.32-2.496 0.48-3.168-0.16-0.672-0.256-1.28-0.384-1.952-0.032-0.16-0.096-0.32-0.128-0.48-0.128-0.416-0.288-0.864-0.416-1.376-29.696-64-71.872-120.032-121.952-165.056l46.336-44.32c55.328 50.496 101.728 112.672 134.016 183.36 1.376 2.496 2.24 4.832 2.848 6.912 0.256 0.608 0.48 1.184 0.672 1.76 1.536 4.48 1.856 8.352 1.728 8.352 0 0 0-0.032-0.032-0.032C991.04 373.728 992 378.336 992 383.904z"  horiz-adv-x="1024" />

    
    <glyph glyph-name="29youxiangfill" unicode="&#59088;" d="M85.57199844 654.28550396l391.99406812-249.00877219c18.02138156-11.45847094 50.84552719-11.45847094 68.86786781 0l383.35992188 244.21202437c7.30160906 4.64325187 15.84653625 5.7196425 23.605755 3.69637406-14.11203188 31.09827563-45.45781969 52.78053469-81.77207813 52.78053469L152.37246781 705.96566489c-34.12118625 0-63.85334719-19.14286125-79.02642-47.25180281C77.56814469 658.17086958 81.74131531 656.72129208 85.57199844 654.28550396zM578.53568844 354.79096083c-18.16720219-11.55056906-41.79598219-17.91297469-66.53568844-17.91297469-24.74066625 0-48.36944531 6.36240656-66.53568844 17.91297469L62.63203156 597.9803189500001l0-461.78770781c0-49.48325062 40.25718562-89.74043625 89.74139532-89.74043625l719.25506531 0c49.48325062 0 89.74139531 40.25718562 89.74139531 89.74043625L961.3698875 598.66817208 578.53568844 354.79096083z"  horiz-adv-x="1024" />

    
    <glyph glyph-name="arrow_fill_left" unicode="&#59284;" d="M703.57776498-53.89719097c-14.81332623 0-27.63803648 5.41862912-38.4787877 16.25239438l-383.16018688 383.16717284c-10.84075122 10.83492918-16.25239438 23.65847552-16.25239438 38.47180174 0 14.82613305 5.41164317 27.64967936 16.25239438 38.48460857l383.16018688 383.16717284c10.84075122 10.83492918 23.66546148 16.25123043 38.4787877 16.25123043s27.65084331-5.41630009 38.48460857-16.25123044c10.84191517-10.84075122 16.25239438-23.67128236 16.25239438-38.48577252l0-766.32037489c0-14.81914708-5.41047923-27.64269341-16.25239438-38.48460857C731.22744434-48.479725789999975 718.3910912-53.89719097 703.57776498-53.89719097L703.57776498-53.89719097z"  horiz-adv-x="1024" />

    
    <glyph glyph-name="arrow_fill_right" unicode="&#59285;" d="M320.42223502 821.89719097c14.81332623 0 27.63803648-5.41862912 38.4787877-16.25239438l383.16018688-383.16717284c10.84075122-10.83492918 16.25239438-23.65847552 16.25239438-38.47180174 0-14.82613305-5.41164317-27.64967936-16.25239438-38.48460857l-383.16018688-383.16717284c-10.84075122-10.83492918-23.66546148-16.25123043-38.4787877-16.25123043s-27.65084331 5.41630009-38.48460857 16.25123044c-10.84191517 10.84075122-16.25239438 23.67128236-16.25239438 38.48577252l0 766.32037489c0 14.81914708 5.41047923 27.64269341 16.25239438 38.48460857C292.77255566 816.47972579 305.6089088 821.89719097 320.42223502 821.89719097L320.42223502 821.89719097z"  horiz-adv-x="1024" />

    
    <glyph glyph-name="arrow_fill_down" unicode="&#59283;" d="M949.89719097 575.57776498c0-14.81332623-5.41862912-27.63803648-16.25239438-38.4787877l-383.16717284-383.16018688c-10.83492918-10.84075122-23.65847552-16.25239438-38.47180174-16.25239438-14.82613305 0-27.64967936 5.41164317-38.48460857 16.25239438l-383.16717284 383.16018688c-10.83492918 10.84075122-16.25123043 23.66546148-16.25123043 38.4787877s5.41630009 27.65084331 16.25123044 38.48460857c10.84075122 10.84191517 23.67128236 16.25239438 38.48577252 16.25239438l766.32037489 0c14.81914708 0 27.64269341-5.41047923 38.48460857-16.25239438C944.47972579 603.2274443399999 949.89719097 590.3910912 949.89719097 575.57776498L949.89719097 575.57776498z"  horiz-adv-x="1024" />

    
    <glyph glyph-name="arrow_fill_up" unicode="&#59282;" d="M74.10280903 192.42223502000002c0 14.81332623 5.41862912 27.63803648 16.25239438 38.4787877l383.16717284 383.16018688c10.83492919 10.84075122 23.65847552 16.25239438 38.47180174 16.25239438 14.82613305 0 27.64967936-5.41164317 38.48460857-16.25239438l383.16717284-383.16018688c10.83492919-10.84075122 16.25123043-23.66546147 16.25123043-38.4787877s-5.41630009-27.65084331-16.25123044-38.48460857c-10.84075122-10.84191517-23.67128236-16.25239438-38.48577251-16.25239438l-766.3203749 0c-14.81914708 0-27.64269341 5.41047922-38.48460857 16.25239438C79.52027421 164.77255565999997 74.10280903 177.6089088 74.10280903 192.42223502000002L74.10280903 192.42223502000002z"  horiz-adv-x="1024" />

    
    <glyph glyph-name="lock1" unicode="&#59281;" d="M793.25 440.25l-56.25 0 0 168.75C737 733.25625 636.25625 834 512 834c-124.25625 0-225-100.74375-225-225l0-168.75L230.75 440.25c-30.9375 0-56.25-25.3125-56.25-56.25l0-393.75c0-30.9375 25.3125-56.25 56.25-56.25l562.5 0c30.9375 0 56.25 25.3125 56.25 56.25L849.5 384C849.5 414.9375 824.1875 440.25 793.25 440.25zM512 102.75c-31.078125 0-56.25 25.171875-56.25 56.25s25.171875 56.25 56.25 56.25 56.25-25.171875 56.25-56.25S543.078125 102.75 512 102.75zM624.5 440.25L399.5 440.25l0 168.75c0 62.04375 50.45625 112.5 112.5 112.5s112.5-50.45625 112.5-112.5L624.5 440.25z"  horiz-adv-x="1024" />

    
    <glyph glyph-name="securityCode-b" unicode="&#59084;" d="M909.09087119 642.24835723a64.02879668 64.02879668 0 0 1-50.5490502 56.16561094 1193.5192377 1193.5192377 0 0 0-163.44192831 37.63095907A607.15025683 607.15025683 0 0 0 549.06930372 821.41665615a66.83707705 66.83707705 0 0 1-78.0702003 0 383.04946846 383.04946846 0 0 0-147.15390059-84.81007266 548.73802089 548.73802089 0 0 0-158.94868007-39.31592782 59.53554756 59.53554756 0 0 1-49.98739395-56.16561094S113.22416094 500.14936026 113.22416094 376.02335976999996c0-224.66244463 265.10168496-442.02335977 397.65252656-442.02335977s357.21328711 153.33211846 393.15927832 438.65342315c8.98649737 168.49683369 2.80828037 269.03327783 2.80828037 269.03327783zM764.7452501 468.69661817l-276.8964627-261.1700921a37.63095908 37.63095908 0 0 0-46.05580107-4.49324824l-7.30152949 6.17821699L281.72099463 368.16017402a37.63095908 37.63095908 0 0 0 56.16561094 51.6723627L463.6975748 287.84335049000003l249.37531348 235.89556699a37.63095908 37.63095908 0 1 0 51.67236182-56.16561094"  horiz-adv-x="1024" />

    
    <glyph glyph-name="ecurityCode" unicode="&#59087;" d="M513.58823545-66C370.64705908-66 113.35294092 157.41176455000004 109.64705908 377.11764727V628.58823545a82.05882363 82.05882363 0 0 0 71.47058819 77.8235291 501.35294092 501.35294092 0 0 1 143.47058818 35.47058818A345.70588271 345.70588271 0 0 1 454.8235291 813.35294092a89.47058818 89.47058818 0 0 0 105.88235361 4.76470635A553.23529453 553.23529453 0 0 1 692 742.94117636a1103.29411729 1103.29411729 0 0 1 149.29411729-33.88235272 86.82352911 86.82352911 0 0 0 69.8823536-79.94117637 2558.64705908 2558.64705908 0 0 0-2.64705907-256.23529454C874.64705908 89.64705907999996 653.35294092-66 513.58823545-66z m0 847.05882364a34.41176455 34.41176455 0 0 1-21.70588272-6.88235274A385.41176455 385.41176455 0 0 0 342.58823545 692.11764727a534.70588271 534.70588271 0 0 0-158.82352998-38.11764727 29.64705908 29.64705908 0 0 1-21.17647002-26.47058818v-249.35294092C166.29411729 182.82352910999998 404.52941182-13.058823630000006 513.58823545-13.058823630000006s311.29411729 130.23529453 344.11764726 390.70588271c7.94117637 154.58823545 0 247.76470547 0 248.8235291a33.88235273 33.88235273 0 0 1-25.94117724 29.64705909 1131.88235273 1131.88235273 0 0 0-158.82352911 36.52941181A594.52941182 594.52941182 0 0 0 533.1764709 775.76470547a32.82352911 32.82352911 0 0 1-21.1764709 5.29411817zM751.8235291 467.64705908L490.8235291 220.94117637a35.47058818 35.47058818 0 0 0-43.41176455-4.23529366l-6.88235273 5.82352911-141.88235274 150.35294091a35.47058818 35.47058818 0 1 0 52.94117637 48.70588272l117.52941182-124.41176456 235.05882362 222.35294093a35.47058818 35.47058818 0 1 0 48.70588184-52.94117637"  horiz-adv-x="1024" />

    
    <glyph glyph-name="check2" unicode="&#59086;" d="M980.09 711.82199999c-16.10000001 15.10000001-41.4 14.40000001-56.49999999-1.79999999l-533.00000001-567.50000001-291.2 286.90000001c-15.70000001 15.50000001-41.10000001 15.30000001-56.6-0.4-15.50000001-15.70000001-15.30000001-41.10000001 0.4-56.5l320.40000001-315.6c0.10000001-0.10000001 0.30000001-0.2 0.39999999-0.3 0.10000001-0.10000001 0.2-0.30000001 0.3-0.4 2.50000001-2.4 5.6-3.8 8.5-5.40000001 1.4-0.8 2.70000001-2.10000001 4.2-2.69999999 4.70000001-1.8 9.70000001-2.8 14.7-2.8 5.2 0 10.50000001 1 15.3 3.1 1.60000001 0.70000001 2.90000001 2.10000001 4.4 3 3 1.8 6.10000001 3.2 8.7 5.8 0.10000001 0.10000001 0.2 0.30000001 0.3 0.4 0.10000001 0.10000001 0.2 0.2 0.4 0.3l561.09999999 597.3C996.99 671.422 996.19 696.722 980.09 711.82199999z"  horiz-adv-x="1024" />

    
    <glyph glyph-name="check1" unicode="&#59085;" d="M970.0544326 681.18487124c0 41.34103391-31.28103041 71.50596197-72.62206431 71.50596198-22.33712924 0-42.45713625-13.40831051-42.45713625-13.40831053C662.82464031 636.4955303300001 356.71095035 289.04080647 356.71095035 289.04080647c-22.33712924 18.98882221-158.65243914 144.12802626-158.65243913 144.12802627s0 0-1.11610233 0l-1.11610234 1.11610233 0 0c-17.87271988 13.40831051-35.74543974 23.46831402-58.09765146 23.46831403-46.9215456 0-83.79817014-37.99272688-83.79817014-83.79817013 0-25.70051871 17.87271988-51.38595494 30.16492807-63.67816315 86.03037482-82.66698534 179.87346603-193.28177653 211.15449641-240.20332213 20.10492455-30.16492806 43.57323858-54.74934443 80.43478066-54.74934444 25.70051871 0 45.80544326 11.17610585 61.44595846 29.04882573 5.5805117 6.69661404 12.29220817 14.52441286 18.98882221 25.70051871 53.6332421 87.14647717 240.20332214 372.03914022 460.30171974 535.14090625C947.71730335 629.7838338199999 970.0544326 646.54045137 970.0544326 681.18487124z"  horiz-adv-x="1024" />

    
    <glyph glyph-name="more-copy" unicode="&#59083;" d="M554.6666666666667 728.7466666666667m-1.4210854715202004e-14 88.32a17.25 17.25 0 1 1 2.842170943040401e-14-176.64 17.25 17.25 0 1 1-2.842170943040401e-14 176.64ZM554.6666666666667 384.7466666666666m-1.4210854715202004e-14 88.32a17.25 17.25 0 1 1 2.842170943040401e-14-176.64 17.25 17.25 0 1 1-2.842170943040401e-14 176.64ZM554.6666666666669 60.74666666666678m-1.4210854715202004e-14 88.32a17.25 17.25 0 1 1 2.842170943040401e-14-176.64 17.25 17.25 0 1 1-2.842170943040401e-14 176.64Z"  horiz-adv-x="1091" />

    
    <glyph glyph-name="more" unicode="&#59082;" d="M209.92000000000002 384m-88.32 0a17.25 17.25 0 1 1 176.64 0 17.25 17.25 0 1 1-176.64 0ZM553.92 384m-88.32 0a17.25 17.25 0 1 1 176.64 0 17.25 17.25 0 1 1-176.64 0ZM877.92 384m-88.32 0a17.25 17.25 0 1 1 176.64 0 17.25 17.25 0 1 1-176.64 0Z"  horiz-adv-x="1091" />

    
    <glyph glyph-name="search3-copy" unicode="&#59080;" d="M269.9370666666666 507.0165333333333c-4.7616000000000005-11.111466666666667-17.460266666666666-15.873066666666666-28.570666666666668-11.111466666666667s-15.873066666666666 17.460266666666666-11.111466666666667 28.570666666666668c6.3488 15.873066666666666 14.285866666666667 30.157866666666667 23.810133333333333 44.44373333333333 9.524266666666668 14.285866666666667 20.634666666666664 26.98453333333333 31.746133333333333 39.6832v0 0c12.6976 12.6976 25.397333333333332 23.810133333333333 39.6832 31.746133333333333 14.285866666666667 9.524266666666668 28.570666666666668 17.460266666666666 44.44373333333333 23.810133333333333 11.111466666666667 4.7616000000000005 25.397333333333332 0 28.570666666666668-12.6976 4.7616000000000005-11.111466666666667 0-23.810133333333333-12.6976-28.570666666666668-12.6976-4.7616000000000005-25.397333333333332-12.6976-36.507733333333334-20.634666666666664-11.111466666666667-7.9370666666666665-22.221866666666664-17.460266666666666-33.3344-26.98453333333333-9.524266666666668-9.524266666666668-19.047466666666665-20.634666666666664-26.98453333333333-33.3344-6.349866666666667-9.524266666666668-12.6976-20.634666666666664-19.047466666666665-34.92053333333333v0zM787.3962666666666 162.57066666666663v0l161.90506666666667-161.90506666666667c15.873066666666666-14.285866666666667 15.873066666666666-38.09493333333333 0-52.3808-14.285866666666667-14.285866666666667-38.09493333333333-14.285866666666667-52.3808 0l-163.49226666666667 160.31786666666667c-31.746133333333333-26.98346666666667-66.66666666666667-47.6192-104.7616-63.492266666666666-47.6192-20.634666666666664-101.58826666666667-30.157866666666667-155.55626666666666-30.157866666666667-55.5552 0-107.93599999999999 11.111466666666667-157.14346666666665 30.157866666666667-49.20746666666666 20.634666666666664-95.2384 50.7936-131.74613333333332 88.88853333333333-38.09493333333333 38.09493333333333-68.25386666666667 82.53973333333333-88.88853333333333 133.33440000000002l-1.5872 1.5872c-19.047466666666665 47.6192-30.157866666666667 100-30.157866666666667 153.968 0 55.5552 11.111466666666667 107.93599999999999 30.157866666666667 155.55626666666666 20.634666666666664 50.7936 50.7936 95.23946666666667 88.88853333333333 133.33333333333334 73.01653333333334 74.60266666666666 176.19093333333333 119.04853333333334 288.8885333333334 119.04853333333334 53.967999999999996 0 107.93706666666667-11.111466666666667 155.55626666666666-31.747200000000003v0 0c49.20746666666666-20.634666666666664 95.23946666666667-50.7936 133.33440000000002-88.88853333333333l1.5872-1.5872c36.507733333333334-36.507733333333334 66.66666666666667-80.95146666666666 87.3024-130.15893333333332v-1.5872c19.047466666666665-47.6192 30.157866666666667-100 30.157866666666667-153.968 0-55.5552-11.111466666666667-107.93599999999999-31.747200000000003-155.55626666666666-14.285866666666667-38.09493333333333-34.92053333333333-74.60266666666666-60.31786666666667-104.7616v0zM600.0949333333334 730.8245333333334v0c-39.68213333333333 15.873066666666666-82.53973333333333 25.397333333333332-126.98346666666666 25.397333333333332-92.06293333333333 0-176.19093333333333-36.507733333333334-236.50773333333333-96.8256-30.157866666666667-30.157866666666667-55.5552-68.25386666666667-73.01546666666667-107.93599999999999-15.873066666666666-39.6832-25.397333333333332-82.53973333333333-25.397333333333332-126.98346666666666 0-44.44373333333333 7.9370666666666665-87.3024 23.810133333333333-126.98346666666666v-1.5872c17.460266666666666-39.6832 41.2704-77.77813333333333 73.01653333333334-107.93706666666667 30.157866666666667-30.157866666666667 66.66666666666667-55.5552 107.93706666666667-73.01653333333334 38.09493333333333-15.873066666666666 82.53973333333333-25.397333333333332 126.98346666666666-25.397333333333332 44.44373333333333 0 88.88853333333333 9.524266666666668 126.98346666666666 25.397333333333332 39.6832 17.460266666666666 77.77813333333333 41.2704 107.93599999999999 71.42933333333333v0c30.157866666666667 30.157866666666667 55.5552 68.25386666666667 73.01653333333334 107.93706666666667 15.873066666666666 38.09493333333333 25.397333333333332 82.53973333333333 25.397333333333332 126.98346666666666 0 44.44373333333333-9.524266666666668 87.3024-23.810133333333333 125.39733333333334l-1.5872 1.5872c-17.460266666666666 39.6832-39.6832 76.19093333333333-69.84106666666666 106.3488l-1.5872 1.5872c-28.570666666666668 33.3344-65.07946666666666 57.14346666666667-106.3488 74.60266666666666v0 0zM692.1589333333334 422.8885333333334v0c0 12.6976 11.111466666666667 22.222933333333334 22.222933333333334 22.222933333333334 12.6976 0 22.221866666666664-11.111466666666667 22.221866666666664-22.221866666666664 0-34.92053333333333-6.3488-69.84213333333334-20.634666666666664-101.58826666666667v0c-12.6976-31.747200000000003-31.747200000000003-60.31786666666667-57.14346666666667-85.71520000000001s-53.967999999999996-44.44373333333333-85.71520000000001-57.14346666666667c-31.746133333333333-14.285866666666667-66.66666666666667-20.634666666666664-101.58826666666667-20.634666666666664-12.6976 0-22.221866666666664 9.524266666666668-22.221866666666664 22.221866666666664 0 12.6976 9.524266666666668 22.221866666666664 22.221866666666664 22.221866666666664 28.570666666666668 0 57.14346666666667 6.3488 84.12693333333333 15.873066666666666 25.397333333333332 11.111466666666667 49.20746666666666 26.98453333333333 71.42933333333333 47.6192 20.634666666666664 20.634666666666664 36.507733333333334 44.44373333333333 47.6192 69.84213333333334l1.5872 1.5872c9.524266666666668 28.570666666666668 15.873066666666666 57.14346666666667 15.873066666666666 85.71520000000001v0z"  horiz-adv-x="1024" />

    
    <glyph glyph-name="magnifier" unicode="&#59081;" d="M281.375 513.375C275.75 502.125 258.875 496.5 253.25 502.125 242 502.125 236.375 519 236.375 530.25c5.625 16.875 16.875 28.125 22.5 45l0 0 0 0C270.125 586.5 281.375 597.75 292.625 609l0 0 0 0c11.25 11.25 22.5 22.5 39.375 33.75C343.25 648.375 360.125 659.625 377 665.25 388.25 670.875 399.5 665.25 405.125 654c5.625-11.25 0-22.5-11.25-28.125C377 620.25 365.75 614.625 354.5 603.375 343.25 597.75 332 586.5 326.375 580.875l0 0C315.125 569.625 303.875 558.375 298.25 547.125l0 0C292.625 535.875 281.375 524.625 281.375 513.375L281.375 513.375zM776.375 175.875l157.5-157.5c16.875-16.875 16.875-39.375 0-50.625-11.25-16.875-39.375-16.875-50.625 0l-157.5 157.5c-28.125-28.125-61.875-45-101.25-61.875-45-16.875-95.625-28.125-151.875-28.125-50.625 0-106.875 11.25-151.875 28.125l0 0 0 0c-50.625 22.5-90 50.625-129.375 84.375l0 0c-33.75 33.75-67.5 78.75-84.375 129.375l0 0C90.125 327.75 78.875 378.375 78.875 429c0 50.625 11.25 106.875 28.125 151.875 22.5 50.625 50.625 90 84.375 129.375 73.125 73.125 168.75 118.125 281.25 118.125 50.625 0 106.875-11.25 151.875-28.125l0 0 0 0c50.625-22.5 90-50.625 129.375-84.375l0 0c33.75-33.75 61.875-78.75 84.375-123.75l0 0c16.875-45 28.125-95.625 28.125-146.25 0-50.625-11.25-106.875-28.125-151.875C821.375 243.375 804.5 204 776.375 175.875L776.375 175.875zM596.375 727.125C557 744 517.625 749.625 472.625 749.625c-90 0-168.75-33.75-225-95.625C213.875 625.875 191.375 592.125 174.5 552.75 163.25 513.375 152 474 152 429 152 384 163.25 344.625 174.5 305.25l0 0c16.875-39.375 39.375-73.125 67.5-106.875l0 0 0 0c28.125-28.125 67.5-56.25 106.875-67.5l0 0c39.375-16.875 78.75-22.5 123.75-22.5 45 0 84.375 11.25 123.75 22.5 39.375 16.875 73.125 39.375 101.25 67.5l0 0 0 0c28.125 28.125 56.25 67.5 67.5 106.875 16.875 39.375 22.5 78.75 22.5 123.75 0 45-5.625 84.375-22.5 123.75l0 0c-16.875 39.375-39.375 73.125-67.5 101.25l0 0C669.5 687.75 635.75 710.25 596.375 727.125L596.375 727.125 596.375 727.125z"  horiz-adv-x="1024" />

    
    <glyph glyph-name="dianhua" unicode="&#59077;" d="M963.444 145.795l-3.693 5.375c1.978-1.86-9.786 11.829-9.786 11.829s-11.044 12.915-40.009 36.861c-23.812 19.684-53.546 42.322-76.734 57.619-28.165 18.58-47.777 30.548-46.545 29.749l-20.686 10.347c-9.07 4.487-24.215 4.976-34.909 1.293-9.663-3.328-18.167-10.897-22.114-17.784 1.691 3.113-6.707-6.12-23.787-36.565-7.32-13.29-15.907-32.053-26.243-50.482-14.025-25.009-50.398-49.754-86.642-29.237-46 26.037-105.123 61.967-165.822 119.626-70.358 66.753-108.818 117.947-130.663 166.645-7.953 17.729-4.339 54.856 24.724 69.02 28.707 13.991 45.224 17.522 63.358 28.407 16.418 10.239 13.173 6.822 32.323 19.401 0.773 0.563 6.903 5.898 7.758 6.467 0 0 1.428 1.446 2.586 2.587 12.027 11.403 15.067 26.52 9.05 41.389l-2.586 7.761c0 0-13.814 31.361-34.909 67.258-11.179 19.022-27.437 42.692-40.08 59.497-34.22 45.486-64.645 59.497-64.645 59.497s-8.528 4.493-12.93 6.467c-17.343 7.312-32.732 5.168-47.838-1.293-32.721-12.089-51.357-28.615-76.647-49.405-55.277-45.441-94.016-108.571-86.283-163.683 12.049-86.197 120.24-276.032 261.702-410.296 141.504-134.284 341.553-237.033 432.228-248.374 60.937-7.763 112.554 23.365 163.939 70.718 18.092 16.673 41.732 43.999 53.889 70.007 6.836 14.623 13.511 42.94 1.994 59.302z"  horiz-adv-x="1024" />

    
    <glyph glyph-name="peiziiconfont08" unicode="&#59078;" d="M712.848 189.3312c-10.7888 2.9424-22.1136 4.5216-33.8336 4.5216-47.4528 0-88.92-25.6544-111.32-63.904-7.24-12.3072-19.784-20.7024-34.048-21.6352-5.9856-0.3952-12.0064-0.5744-18.064-0.5744-140.1344 0-256.1136 103.264-276.3632 237.888-2.5808 17.2944 5.5904 34.3376 20.5008 43.3792 37.344 22.6048 62.3248 63.6528 62.3248 110.5488 0 25.296-7.2752 48.8688-19.8192 68.7824-22.8672 36.2752-63.2224 60.3872-109.2048 60.3872-68.9568 0-125.2608-54.144-128.8448-122.2816-0.1072-2.296-0.1792-4.592-0.1792-6.8896 0-6.5664 0.5008-12.9888 1.4336-19.2672 20.9312-304.3744 274.1392-544.7744 583.4752-544.7744 6.8464 0 13.6912 0.144 20.4656 0.3952 3.1904-0.2512 6.3792-0.3952 9.6416-0.3952 9.1024 0 17.9552 0.9328 26.4848 2.7264 58.5632 12.2352 102.5376 64.1904 102.5376 126.4432C808.0384 124.2784 767.6832 174.44 712.848 189.3312M666.1168 287.1872c-19.7872 0-35.84 16.0528-35.84 35.84 0 98.9328-80.384 179.4336-179.2 179.4336-19.7872 0-35.84 16.0528-35.84 35.84s16.0528 35.84 35.84 35.84c138.344 0 250.88-112.6528 250.88-251.1136C701.9568 303.24 685.904 287.1872 666.1168 287.1872zM795.1264 308.7008c-19.7872 0-35.84 16.0528-35.84 35.84 0 158.2928-128.6128 287.0928-286.72 287.0928-19.7872 0-35.84 16.0528-35.84 35.84 0 19.7872 16.0528 35.84 35.84 35.84 197.6336 0 358.4-160.9536 358.4-358.7728C830.9664 324.7536 814.9136 308.7008 795.1264 308.7008zM924.16 330.2368c-19.7872 0-35.84 16.0528-35.84 35.84 0 217.6528-176.8672 394.7296-394.24 394.7296-19.7872 0-35.84 16.0528-35.84 35.84 0 19.7872 16.0528 35.84 35.84 35.84 256.8992 0 465.92-209.2304 465.92-466.4096C960 346.2896 943.9472 330.2368 924.16 330.2368z"  horiz-adv-x="1024" />

    
    <glyph glyph-name="dianhua1" unicode="&#59079;" d="M488.315-65.848c0 0-116.858 78.284-164.518 129.902-123.944 134.235-209.484 289.819-250.753 468.593-10.533 45.627-16.332 91.944-15.795 138.935 0.38 33.168 15.605 53.598 47.708 62.917 45.706 13.268 91.413 26.532 137.155 39.678 31.31 8.998 53.956-1.36 66.816-30.585 19.739-44.856 39.38-89.755 58.959-134.68 12.15-27.878 4.32-51.103-22.438-65.586-26.949-14.585-53.871-29.27-81.34-42.827-15.544-7.673-21.881-19.548-22.697-35.966-1.554-31.305 6.666-60.724 16.699-89.828 19.058-55.281 48.935-103.953 89.896-145.668 7.228-7.361 15.499-13.834 23.887-19.888 16.338-11.791 32.786-13.492 51.275-2.652 24.78 14.528 50.668 27.185 76.227 40.362 27.736 14.3 52.219 8.533 70.783-16.737 29.898-40.701 59.671-81.494 89.299-122.393 16.91-23.343 14.029-48.009-8.02-66.529-37.601-31.584-75.712-62.564-113.116-94.376-8.259-7.025-27.349-12.671-27.349-12.671s-5.31-1.816-11.139-2.403c-6.794-0.686-11.54 2.402-11.54 2.402zM942.78 403.781c-25.503-117.208-94.408-200.299-199.46-255.185-13.034-6.81-26.326-8.136-38.356 2.148-17.96 15.355-13.634 39.096 10.048 51.803 20.873 11.2 40.913 23.498 59.131 38.627 170.035 141.206 139.747 396.542-59.534 495.102-98.146 48.542-198.075 48.418-297.755 3.128-27.908-12.68-45.938-9.577-55.805 10.737-8.308 17.105 1.111 31.321 29.51 44.586 38.326 17.903 78.608 29.005 120.431 34.838 2.972 0.414 7.593 1.685 12.086 2.419 10.577 1.728 54.61 2.807 78.214-0.255 18.09-2.346 38.684-5.392 56.132-10.105 145.076-39.195 243.345-126.602 282.742-274.468 4.516-16.949 9.455-53.889 9.454-75.678 0-30.647-4.306-56.059-6.839-67.698zM482.192 370.471c23.408 0 43.23 0.38 63.027-0.14 12.203-0.32 23.97-3.12 27.854-17.093 3.861-13.889-5.201-26.927-20.745-27.211-42.467-0.775-84.959-0.452-127.437-0.097-8.73 0.073-17.173 3.284-20.606 12.391-3.791 10.06-1.719 19.389 5.837 27.434 22.937 24.423 45.994 48.742 68.532 73.531 8.224 9.045 15.155 19.27 22.614 29.005 4.06 5.3 6.923 11.261 8.658 17.677 3.778 13.963-2.323 28.395-14.027 33.641-12.441 5.576-26.222 1.33-34.199-11.685-4.384-7.153-6.964-15.395-10.551-23.055-7.094-15.15-18.298-19.922-33.543-14.458-11.094 3.977-14.885 14.309-12.797 29.367 8.633 62.287 89.526 87.299 138.006 50.034 22.526-17.316 30.11-49.468 18.257-76.687-10.676-24.516-27.411-45.01-44.977-64.83-10.536-11.888-21.2-23.662-33.901-37.822zM758.032 481.19c0.011-16.036 0.179-32.076-0.072-48.108-0.099-6.33 0.479-10.509 8.555-11.247 12.657-1.156 21.916-8.409 21.852-21.584-0.063-13.023-8.723-20.575-21.833-21.357-6.827-0.407-9.015-3.212-8.567-9.653 0.391-5.632 0.146-11.315 0.06-16.974-0.287-18.8-8.411-26.851-26.723-26.563-17.722 0.278-24.613 7.74-24.645 26.689-0.045 26.114-0.045 26.112-26.834 26.115-19.809 0.002-39.619 0.044-59.429 0.003-9.332-0.019-18.472 1.1-22.942 10.572-4.103 8.697-1.95 16.655 3.206 25.176 26.332 43.516 51.879 87.507 77.791 131.278 11.991 20.256 28.747 26.77 51.591 20.361 18.127-5.086 27.568-18.676 27.934-40.845 0.239-14.618 0.044-29.242 0.055-43.863zM657.626 422.349c15.272 0 27.547-0.056 39.822 0.032 4.043 0.029 9.106-1.134 9.113 5.56 0.026 28.355 0.011 56.71 0.011 85.064-0.878 0.085-1.757 0.171-2.635 0.256-15.094-29.629-30.187-59.258-46.311-90.912z"  horiz-adv-x="1024" />

    
    <glyph glyph-name="dianhua2" unicode="&#59076;" d="M521.817 830.229c-246.631 0-446.565-199.936-446.565-446.571 0-246.613 199.934-446.55 446.565-446.55 246.633 0 446.55 199.936 446.55 446.55 0 246.635-199.918 446.571-446.55 446.571zM695.588 178.344c-31.473-31.489-148.827-1.642-264.773 114.293-115.946 115.968-145.743 233.303-114.307 264.774 27.315 27.278 60.574 74.96 110.423 12.892 49.886-62.087 25.343-79.429-2.771-107.582-19.711-19.673 21.368-69.436 64.327-112.394 42.996-42.94 92.719-83.986 112.43-64.368 28.153 28.155 45.511 52.68 107.562 2.791 62.049-49.905 14.406-83.125-12.891-110.406z"  horiz-adv-x="1024" />

    
    <glyph glyph-name="phone" unicode="&#59075;" d="M708.875 834l-393.75 0c-46.406 0-84.375-37.969-84.375-84.375l0-731.25c0-46.406 37.969-84.375 84.375-84.375l393.75 0c46.406 0 84.375 37.969 84.375 84.375l0 731.25c0 46.406-37.969 84.375-84.375 84.375zM512-9.75c-31.066 0-56.25 25.184-56.25 56.25s25.184 56.25 56.25 56.25 56.25-25.184 56.25-56.25-25.184-56.25-56.25-56.25zM737.001 158.999l-450 0 0 562.5 450 0 0-562.5z"  horiz-adv-x="1024" />

    
    <glyph glyph-name="shouji" unicode="&#59072;" d="M508.41 117.852c-24.757 0-44.897-20.139-44.897-44.898 0-24.757 20.141-44.898 44.897-44.898 24.758 0 44.9 20.14 44.9 44.898-0.001 24.758-20.142 44.898-44.9 44.898zM730.541 824.56l-444.259 0c-37.373 0-67.779-30.406-67.779-67.779l0-745.562c0-37.374 30.406-67.779 67.779-67.779l444.258 0c37.373 0 67.778 30.405 67.778 67.779l0 745.562c0.001 37.373-30.404 67.779-67.778 67.779zM286.282 779.374l444.258 0c12.458 0 22.594-10.136 22.594-22.594l0-558.57-489.444 0 0 558.571c0 12.457 10.135 22.593 22.593 22.593zM730.541-11.373l-444.259 0c-12.458 0-22.594 10.134-22.594 22.593l0 137.936 489.445 0 0-137.937c0.001-12.458-10.134-22.592-22.593-22.592z"  horiz-adv-x="1024" />

    
    <glyph glyph-name="shouji1" unicode="&#59073;" d="M813.2506 53.485401c0-16.423041-3.28379-31.69077-9.851369-45.813419-6.566556-14.118556-15.59621-26.599821-27.095102-37.432541-11.491729-10.838859-24.956392-19.377326-40.386826-25.616424-15.435551-6.237051-32.020274-9.358135-49.751101-9.358135L336.436984-64.735118c-17.730826 0-34.31555 3.121084-49.751101 9.358135-15.430434 6.240121-28.893051 14.777565-40.391942 25.616424-11.491729 10.832719-20.521383 23.313985-27.089985 37.432541-6.566556 14.122649-9.850345 29.390377-9.850345 45.813419L209.35361 713.531202c0 16.417925 3.28379 31.851429 9.850345 46.300512 6.568602 14.45113 15.598256 27.093055 27.089985 37.928844 11.498892 10.838859 24.962531 19.376303 40.391942 25.613354 15.435551 6.239098 32.021298 9.360182 49.751101 9.360182l349.72922 0c17.730826 0 34.31555-3.122107 49.751101-9.360182 15.430434-6.237051 28.894074-14.774495 40.386826-25.613354 11.497868-10.835789 20.528546-23.477714 27.095102-37.928844 6.567579-14.449084 9.851369-29.882588 9.851369-46.300512L813.2506 53.485401 813.2506 53.485401zM733.455229 666.242176 288.165584 666.242176l0-564.486398 445.289646 0L733.455229 666.242176 733.455229 666.242176zM510.80836 74.169489c-13.793144 0-25.778106-4.925173-35.957957-14.775518-10.17985-9.851369-15.267728-22.002107-15.267728-36.449143 0-13.793144 5.087878-25.777083 15.267728-35.957957 10.17985-10.181897 22.165836-15.272845 35.957957-15.272845 14.45113 0 26.597775 5.090948 36.453237 15.272845 9.851369 10.17985 14.776542 22.163789 14.776542 35.957957 0 14.447037-4.925173 26.597775-14.776542 36.449143C537.406135 69.244316 525.25949 74.169489 510.80836 74.169489L510.80836 74.169489zM589.61931 749.979322c0 5.254677-1.641383 9.359158-4.925173 12.313443-3.28379 2.959402-6.89606 4.433986-10.833743 4.433986L448.743816 766.726751c-3.28379 0-6.730285-1.474584-10.342556-4.433986-3.613294-2.954285-5.417383-7.058766-5.417383-12.313443s1.642406-9.359158 4.925173-12.313443c3.28379-2.954285 6.897084-4.433986 10.834766-4.433986l125.116579 0c3.937682 0 7.549953 1.479701 10.833743 4.433986S589.61931 744.724645 589.61931 749.979322L589.61931 749.979322zM589.61931 749.979322"  horiz-adv-x="1024" />

    
    <glyph glyph-name="shouji2" unicode="&#59074;" d="M722.911-66l-421.867 0c-62.103 0-112.489 50.387-112.489 112.533l0 674.934c0 62.146 50.386 112.534 112.489 112.534l421.867 0c62.146 0 112.533-50.388 112.533-112.534l0-674.934c0-62.146-50.387-112.533-112.533-112.533l0 0zM779.177 721.466c0 31.096-25.172 56.267-56.266 56.267l-421.867 0c-31.051 0-56.224-25.172-56.224-56.267l0-28.089 534.355 0 0 28.089zM779.177 637.111l-534.354 0 0-449.999 534.355 0 0 449.999-0.001 0zM779.177 130.888l-534.354 0 0-84.355c0-31.094 25.173-56.266 56.224-56.266l421.867 0c31.095 0 56.266 25.172 56.266 56.266l0 84.355-0.001 0zM512 18.399c-23.299 0-42.2 18.856-42.2 42.156 0 23.299 18.901 42.2 42.2 42.2 23.299 0 42.2-18.901 42.2-42.2 0-23.299-18.901-42.156-42.2-42.156l0 0z"  horiz-adv-x="1024" />

    
    <glyph glyph-name="add" unicode="&#59070;" d="M863.328 414.659l-317.344-0.1 0 318.624c0 17.665-14.336 32.001-32.001 32.001s-31.999-14.336-31.999-32.001l0-318.4-322.369 0.177c-0.033 0-0.064 0-0.096 0-17.632 0-31.935-14.24-32.001-31.905-0.096-17.665 14.209-32.032 31.872-32.095l322.592-0.177 0-319.167c0-17.696 14.336-32.001 31.999-32.001s32.001 14.303 32.001 32.001l0 318.944 317.088 0.1c0.064 0 0.096 0 0.127 0 17.632 0 31.935 14.24 32.001 31.905s-14.238 32.032-31.87 32.095z"  horiz-adv-x="1024" />

    
    <glyph glyph-name="cut" unicode="&#59071;" d="M863.745 351.999l-700.32 0c-17.665 0-32.001 14.336-32.001 32.001s14.336 32.001 32.001 32.001l700.32 0c17.696 0 31.999-14.336 31.999-32.001s-14.303-32.001-31.999-32.001z"  horiz-adv-x="1024" />

    
    <glyph glyph-name="shuaxin" unicode="&#59069;" d="M133.05 583.947c0 0 76.726 118.395 198.129 181.924 121.403 63.528 270.97 45.24 369.064-16.363 98.092-61.603 131.115-113.582 131.115-113.582l84.496 48.128c0 0 17.483 8.663 17.483-11.551l0-302.243c0 0 0-26.951-20.396-17.326-17.159 8.098-202.725 113.615-261.201 146.905-32.109 14.323-3.898 25.957-3.898 25.957l81.538 46.6c0 0-46.51 58.248-114.579 89.094-72.865 37.962-141.08 42.464-224.643 10.919-54.486-20.569-118.638-73.231-164.841-151.029l-92.266 62.566zM890.602 184.499c0 0-76.726-118.395-198.129-181.924-121.403-63.528-270.97-45.24-369.064 16.363-98.093 61.603-131.115 113.582-131.115 113.582l-84.496-48.127c0 0-17.483-8.663-17.483 11.551l0 302.242c0 0 0 26.951 20.396 17.326 17.158-8.098 202.725-113.615 261.201-146.905 32.109-14.323 3.898-25.957 3.898-25.957l-81.538-46.6c0 0 46.51-58.248 114.579-89.094 72.865-37.962 141.08-42.464 224.643-10.919 54.486 20.569 118.638 73.231 164.841 151.029l92.266-62.566z"  horiz-adv-x="1024" />

    
    <glyph glyph-name="zhiwen" unicode="&#59068;" d="M879.38381 406.776749c-1.044796-86.699618-15.116279-170.21573-42.48358-252.487501-12.32163-37.012985 45.949518-52.751435 58.168818-16.023952 29.017894 87.186711 43.526329 176.678932 44.63764 268.511453C940.143639 445.70741 879.820762 445.657268 879.38381 406.776749M826.83499 268.506593c8.350179 45.731554 12.926404 91.78238 13.230326 138.287553 0.26913 38.930661-60.055794 38.897915-60.3239 0-0.26913-41.120536-3.703345-81.784678-11.07422-122.263601C761.73225 246.508579 819.867298 230.26564 826.83499 268.506593M704.368774-15.862014c44.571125 62.915935 78.434373 131.320884 102.369505 204.570165 12.153808 37.078477-46.11734 52.835346-58.168818 16.040325-22.38687-68.454068-54.703903-131.419122-96.275717-190.162014C629.739053-17.24143 682.085258-47.335842 704.368774-15.862014M575.339072 78.39472c-23.528879-32.939203-50.52779-62.900585-80.217996-90.385567-28.598338-26.491351 14.170744-69.042469 42.651402-42.651402 33.526581 31.0379 63.151295 65.441455 89.64367 102.588493 9.561773 13.398148 2.390443 33.529651-10.806113 41.271986C601.462033 98.088248 584.86503 91.760123 575.339072 78.39472M677.137573 349.026464c-7.742335-70.90898-28.008914-138.520867-60.123332-202.178699-17.47193-34.637892 34.5724-65.188698 52.077076-30.448476 37.164435 73.689303 59.416228 150.591787 68.370157 232.627175C741.668285 387.656273 681.309592 387.269463 677.137573 349.026464M394.771577-39.391916C547.939025 62.892655 636.066155 222.606193 640.611681 406.811542c0.941442 38.913265-59.382459 38.812981-60.322877 0-4.007267-162.290223-80.758302-303.826773-215.983099-394.110009C332.159564-8.776641 362.321514-61.071681 394.771577-39.391916M479.938282 406.794146c-4.021593-152.543232-89.913822-278.17351-228.469482-340.685239-35.412534-15.972786-4.711302-67.965951 30.447453-52.093449 157.694555 71.146387 253.801427 220.609467 258.345929 392.778688C541.305955 445.724807 480.949308 445.624523 479.938282 406.794146M356.05888 186.588885c53.996798 62.914912 82.996273 137.176243 84.848457 220.187865 0.841158 38.930661-59.482743 38.847773-60.3239 0-1.49812-66.382896-23.816428-127.028115-67.193355-177.538509C288.196283 199.901075 330.676793 157.030685 356.05888 186.588885M187.711707 87.030401c40.596604 9.880021 78.837556 26.964118 113.140827 50.847062 31.67542 22.065552 1.548262 74.376964-30.449499 52.092425-30.41266-21.208021-62.697971-35.984562-98.715279-44.771693C133.883755 135.974114 149.923056 77.805296 187.711707 87.030401M280.958438 406.776749c-2.541893-93.952812-74.732052-166.159344-168.717609-168.685887-38.815027-1.058099-38.915311-61.381999 0-60.322877 127.210263 3.3984 225.607294 101.812827 229.04151 229.008764C342.325088 445.70741 282.001187 445.588707 280.958438 406.776749M111.835599 277.207765c72.02029 1.919722 127.650285 57.564044 129.584334 129.58638 1.026376 38.913265-59.297524 38.830377-60.3239 0-1.025353-38.830377-30.414707-68.234057-69.260433-69.26248C72.987826 336.48687 72.920288 276.163993 111.835599 277.207765M839.929216 573.256388c25.854854-52.531424 38.512129-107.990526 39.455617-166.479639 0.604774-38.863123 60.928674-38.913265 60.322877 0-1.111311 69.346391-17.067724 134.735657-47.700395 196.928115C874.838284 638.612908 822.828746 608.014007 839.929216 573.256388M326.333882 726.457606c162.962535 86.294388 347.57209 51.731198 469.228871-85.116563 25.921369-29.118178 68.402903 13.701047 42.651402 42.666752C698.24224 841.422987 481.317699 876.728074 295.885406 778.550031 261.499248 760.354624 291.999912 708.277548 326.333882 726.457606M141.812331 406.776749c1.565658 79.344093 24.961508 150.977573 69.749574 216.368886 22.030759 32.197306-30.264281 62.309114-52.094472 30.447453-50.561559-73.824379-76.212776-157.475568-77.979002-246.817362C80.712765 367.863485 141.036665 367.946372 141.812331 406.776749M510.570953 736.287485C327.580269 731.33673 186.028369 589.803249 181.096033 406.776749c-1.061169-38.913265 59.262732-38.812981 60.3239 0 4.021593 149.816121 119.352295 265.146822 269.15102 269.186835C549.383934 677.006334 549.520033 737.330234 510.570953 736.287485M840.065316 406.776749c-3.972475 146.012492-92.910063 266.577405-230.692103 314.429249-36.82572 12.774955-52.514027-45.496194-16.021905-58.186214 111.929232-38.847773 183.192276-138.220015 186.391131-256.243035C780.81691 367.979118 841.142857 367.863485 840.065316 406.776749M430.133969 555.887812c116.322285 56.335053 244.612137-20.720927 249.762437-149.111063 1.548262-38.744419 61.906955-38.913265 60.3239 0-7.101745 176.091554-183.059246 277.483802-340.534813 201.203488C364.677165 591.014844 395.275044 539.005306 430.133969 555.887812M341.281315 406.776749c0.8913 41.085744 14.305821 79.17627 40.968064 110.684892 24.943089 29.504988-17.504676 72.374354-42.651402 42.651402-37.264719-44.030819-57.396221-95.503121-58.640562-153.336294C280.115234 367.863485 340.439134 367.946372 341.281315 406.776749M640.611681 406.776749c-3.973498 73.452919-56.587809 126.051881-130.040728 130.040728-73.249281 3.954055-126.352733-62.546521-130.004913-130.040728-2.087545-38.880519 58.236356-38.678928 60.3239 0 4.847401 89.846284 134.551462 89.846284 139.399887 0C582.375326 368.096798 642.699226 367.89623 640.611681 406.776749"  horiz-adv-x="1024" />

    
    <glyph glyph-name="homefill" unicode="&#59067;" d="M982.016 491.52 573.344 812c-34.944 27.648-89.696 27.616-124.576 0L43.2 491.456c-13.856-10.976-16.224-31.104-5.28-44.96s31.104-16.224 44.96-5.28L96 451.584 96 64c0-54.944 56.928-96 107.872-96l640 0C894.176-32 928 6.592 928 64L928 452.544l14.496-11.36c5.888-4.608 12.8-6.816 19.712-6.816 9.504 0 18.912 4.192 25.216 12.256C998.336 460.512 995.904 480.64 982.016 491.52zM608 98.816 608 32l-63.968 0-64 0L416 32l0 66.816 0 112.32c0 37.216 30.048 77.248 96 77.248 65.984 0 96-40.032 96-77.248L608 98.816z"  horiz-adv-x="1024" />

    
    <glyph glyph-name="home" unicode="&#59066;" d="M979.84 491.456 574.272 812c-34.912 27.648-89.696 27.616-124.576 0L44.16 491.456c-13.856-10.976-16.224-31.104-5.28-44.96s30.624-16.224 44.48-5.28L96 451.584 96 64c0-54.944 57.888-96 108.8-96l640 0c50.304 0 83.2 38.592 83.2 96L928 450.08l11.68-8.864c5.888-4.64 13.12-6.88 20.064-6.88 9.44 0 18.912 4.16 25.216 12.16C995.936 460.352 993.728 480.48 979.84 491.456zM480 32l0 177.408c0 8.832 16 13.248 32 13.248s32-4.416 32-13.248L544 32 480 32zM864 64c0-21.216-5.856-32-19.2-32L608.64 32c0 0.48-0.64 0.864-0.64 1.344l0 176.064c0 37.216-30.016 77.28-96 77.28s-96-40.064-96-77.28l0-176.064c0-0.48 0.864-0.864 0.864-1.344L204.8 32C184.736 32 160 49.344 160 64L160 502.176l328.928 259.616c11.808 9.344 33.12 9.344 44.96 0L864 500.672 864 64z"  horiz-adv-x="1024" />

    
    <glyph glyph-name="bbgtuichu" unicode="&#59065;" d="M660.399 627.488c10.982 10.982 28.774 10.982 39.756 0l224.924-224.924c10.982-10.987 10.982-28.774 0-39.756l-224.924-224.93c-5.494-5.488-12.686-8.232-19.872-8.232-7.204 0-14.394 2.744-19.883 8.232-10.988 10.988-10.988 28.774 0 39.761l176.926 176.931-550.666 0c-15.543 0-28.116 12.584-28.116 28.116 0 15.525 12.574 28.116 28.116 28.116l550.665 0-176.925 176.932c-10.988 10.982-10.988 28.774 0 39.756zM821.264-39.457l-618.541 0c-62.113 0-112.463 50.349-112.463 112.462l0 618.541c0 62.113 50.349 112.462 112.463 112.462l618.541 0c62.113 0 112.462-50.349 112.462-112.462l0-84.346c0-15.525-12.591-28.116-28.116-28.116s-28.116 12.591-28.116 28.116l0 84.346c0 31.057-25.175 56.23-56.23 56.23l-618.542 0c-31.057 0-56.23-25.175-56.23-56.23l0-618.541c0-31.057 25.175-56.23 56.23-56.23l618.541 0c31.057 0 56.23 25.175 56.23 56.23l0 84.346c0 15.525 12.591 28.116 28.116 28.116s28.116-12.591 28.116-28.116l0-84.346c0.001-62.112-50.349-112.462-112.462-112.462z"  horiz-adv-x="1024" />

    
    <glyph glyph-name="icon2" unicode="&#59063;" d="M1007.367534 179.2c-13.056 21.51424-274.47296 525.73184-307.2 593.92s-47.04256 33.83296-51.2 20.48c-3.77856-12.15488-93.96224-171.78624-110.14144-200.37632C490.472814 689.9712 452.871534 765.3888 444.167534 783.36c-29.00992 59.88352-51.2 0-51.2 0S69.823854 135.71072 14.087534 35.84c-44.52352-79.7696 30.72-61.44 30.72-61.44s693.64736-2.22208 757.76 0 20.48 51.2 20.48 51.2-15.84128 31.60064-41.0112 81.82784C817.702254 107.08992 927.024494 105.95328 976.647534 107.52 1033.039214 109.30176 1020.423534 157.68576 1007.367534 179.2zM741.127534 25.6c-17.73568-2.22208-611.13344 2.22208-655.36 0s-16.98816 24.48384-10.24 40.96 337.92 655.36 337.92 655.36c7.424 22.26176 20.48-10.24 20.48-10.24s293.39648-609.64864 317.44-655.36S758.863214 27.82208 741.127534 25.6zM935.687534 158.72c-28.416 0.8192-169.55392-8.23296-184.32 0S567.047534 527.36 567.047534 527.36s81.55136 165.09952 92.16 184.32 2.60096 28.86656 30.72-20.48 250.14272-494.12096 256-501.76S964.103534 157.9008 935.687534 158.72z"  horiz-adv-x="1028" />

    
    <glyph glyph-name="zonghefuwu" unicode="&#59064;" d="M512.372 827.604l-491.242-255.931 494.684-254.202 492.941 254.202-496.383 255.931zM160.259 571.675l352.113 190.654 357.257-190.654-353.814-176.908-355.554 176.908zM937.482 420.532l-421.666-216.419-416.534 211.266-68.699-28.341 485.234-260.218 488.654 261.073zM937.482 235.028l-421.666-216.418-416.534 211.267-68.699-28.341 485.234-260.219 488.654 261.073z"  horiz-adv-x="1024" />

    
    <glyph glyph-name="gengduo" unicode="&#59061;" d="M511.42132 330.023668c-29.959336 0-54.249555 24.290219-54.249555 54.249555 0 29.980825 24.290219 54.270021 54.249555 54.270021 29.958312 0 54.270021-24.289196 54.270021-54.270021C565.691341 354.313887 541.379633 330.023668 511.42132 330.023668L511.42132 330.023668zM294.382169 330.023668c-29.980825 0-54.270021 24.290219-54.270021 54.249555 0 29.980825 24.290219 54.270021 54.270021 54.270021 29.959336 0 54.249555-24.289196 54.249555-54.270021C348.631724 354.313887 324.340481 330.023668 294.382169 330.023668L294.382169 330.023668zM728.481961 330.023668c-29.959336 0-54.271044 24.290219-54.271044 54.249555 0 29.980825 24.311709 54.270021 54.271044 54.270021 29.959336 0 54.270021-24.289196 54.270021-54.270021C782.751982 354.313887 758.441297 330.023668 728.481961 330.023668L728.481961 330.023668zM755.597529-22.700769c89.773629 0 162.798806 73.0262 162.798806 162.798806L918.396335 628.452501c0 89.773629-73.025177 162.798806-162.798806 162.798806L267.243065 791.251308c-89.773629 0-162.798806-73.025177-162.798806-162.798806l0-488.354464c0-89.772606 73.025177-162.798806 162.798806-162.798806L755.597529-22.700769M755.597529-63.399703 267.243065-63.399703c-112.38665 0-203.498764 91.112114-203.498764 203.498764L63.744301 628.452501c0 112.38665 91.112114 203.498764 203.498764 203.498764l488.354464 0c112.38665 0 203.498764-91.112114 203.498764-203.498764l0-488.354464C959.096293 27.712411 867.984179-63.399703 755.597529-63.399703L755.597529-63.399703 755.597529-63.399703z"  horiz-adv-x="1024" />

    
    <glyph glyph-name="gengduo1" unicode="&#59062;" d="M935.366-8.948c-1.539 0-2.507 0.031-2.733 0.059 0.309-0.089-667.078 0.309-736.86 0.309l-0.566 0c-20.961 0-37.458 6.628-48.943 19.709-19.85 22.667-15.531 55.963-15.358 57.383l7.453 154.187c0.995 20.19-7.649 40.07-23.065 53.18l-102.854 87.245c-6.259 5.314-9.756 13.077-9.558 21.27 0.203 8.191 4.01 15.781 10.495 20.786l98.08 76.1c16.21 12.566 25.309 31.45 24.992 51.812-0.822 57.467-1.361 135.072 0.686 178.841-0.483 16.521 5.233 31.706 16.463 42.91 22.809 22.689 60.914 21.897 62.676 21.669l735.071 0.597c53.577 0 67.735-49.337 67.735-75.415l0-628.715c0-25.227-7.732-45.332-22.999-59.747-21.671-20.529-51.586-22.182-60.713-22.182l0 0zM217.982 39.715c66.315 0 699.598-0.329 699.598-0.329 1.002 0.03 25.568-0.967 41.019 13.727 8.791 8.42 13.241 20.821 13.241 36.946l0 596.234c-0.03 4.505-1.404 44.55-37.269 44.55l-697.463-0.539c-7.741 0.458-29.019-1.726-40.046-12.786-5.397-5.393-7.877-12.51-7.633-21.789-2.048-43.927-1.295-124.613-0.651-168.893 0.407-27.453-12.346-53.931-34.139-70.842l-93.004-72.159 97.593-80.794c20.978-17.799 32.707-44.816 31.362-72.295l-7.202-147.405c-0.137-1.317-2.642-22.082 8.091-34.219 5.634-6.364 13.509-8.978 26.507-9.408l0 0zM195.714 19.834zM371.828 376.86c0-19.443 8-38.77 21.753-52.522s33.076-21.753 52.522-21.753c19.443 0 38.774 8 52.519 21.753 13.753 13.753 21.76 33.078 21.76 52.522s-8.006 38.77-21.76 52.522c-13.746 13.753-33.076 21.753-52.519 21.753-19.444 0-38.77-8-52.522-21.753-13.753-13.753-21.753-33.078-21.753-52.522l0 0zM371.828 376.86zM633.814 376.86c0-19.443 8.006-38.77 21.76-52.522 13.746-13.753 33.071-21.753 52.522-21.753 19.443 0 38.77 8 52.519 21.753 13.746 13.753 21.755 33.078 21.755 52.522s-8.007 38.77-21.755 52.522c-13.751 13.753-33.076 21.753-52.519 21.753-19.451 0-38.775-8-52.522-21.753-13.753-13.753-21.76-33.078-21.76-52.522l0 0zM633.814 376.86z"  horiz-adv-x="1024" />

    
    <glyph glyph-name="gengduo2" unicode="&#59060;" d="M304.958 788.327l-218.465-218.465 636.465-636.503 218.484 218.484-636.484 636.484zM304.958 684.798l366.567-366.621-114.932-114.932-366.567 366.621 114.932 114.932zM608.373 151.476l114.932 114.932 114.604-114.583-114.932-114.932-114.604 114.583zM181.347 234.873c0-24.989 20.259-45.249 45.249-45.249s45.249 20.259 45.249 45.249c0 24.989-20.259 45.249-45.249 45.249-24.989 0-45.249-20.259-45.249-45.249zM556.59 774.308c0-24.989 20.259-45.249 45.249-45.249s45.249 20.259 45.249 45.249c0 0 0 0 0 0 0 24.989-20.259 45.249-45.249 45.249-24.989 0-45.249-20.259-45.249-45.249 0 0 0 0 0 0zM651.556 563.09c0-24.989 20.259-45.249 45.249-45.249s45.249 20.259 45.249 45.249c0 0 0 0 0 0 0 24.989-20.259 45.249-45.249 45.249-24.989 0-45.249-20.259-45.249-45.249 0 0 0 0 0 0z"  horiz-adv-x="1024" />

    
    <glyph glyph-name="close" unicode="&#59059;" d="M566.992 382.485l321.951 320.283c15.223 15.146 15.302 39.691 0.156 54.915-15.185 15.262-39.691 15.302-54.915 0.156l-322.03-320.321-319.233 320.204c-15.107 15.146-39.691 15.223-54.915 0.078-15.185-15.146-15.223-39.729-0.078-54.954l319.156-320.126-321.796-320.087c-15.223-15.146-15.302-39.691-0.156-54.915 7.573-7.612 17.554-11.456 27.535-11.456 9.903 0 19.807 3.767 27.379 11.301l321.874 320.165 322.146-323.117c7.573-7.612 17.515-11.418 27.495-11.418 9.942 0 19.845 3.806 27.419 11.34 15.185 15.146 15.223 39.691 0.078 54.915l-322.068 323.039z"  horiz-adv-x="1024" />

    
    <glyph glyph-name="menu" unicode="&#59058;" d="M921.322 675.807l-532.119 0c-14.129 0-25.583 11.454-25.583 25.583s11.454 25.583 25.583 25.583l532.119 0c14.129 0 25.583-11.454 25.583-25.583s-11.455-25.583-25.583-25.583zM917.842 348.35l-528.64 0c-14.129 0-25.583 11.454-25.583 25.583s11.454 25.583 25.583 25.583l528.64 0c14.129 0 25.583-11.454 25.583-25.583s-11.454-25.583-25.583-25.583zM921.322 20.892l-532.119 0c-14.129 0-25.583 11.454-25.583 25.583s11.454 25.583 25.583 25.583l532.119 0c14.129 0 25.583-11.454 25.583-25.583s-11.455-25.583-25.583-25.583zM225.679 675.807l-123.001 0c-14.129 0-25.583 11.454-25.583 25.583s11.454 25.583 25.583 25.583l123.001 0c14.129 0 25.583-11.454 25.583-25.583s-11.454-25.583-25.583-25.583zM225.474 348.35l-122.797 0c-14.129 0-25.583 11.453-25.583 25.583 0 14.129 11.454 25.583 25.583 25.583l122.797 0c14.129 0 25.583-11.454 25.583-25.583s-11.454-25.583-25.583-25.583zM225.679 20.892l-123.001 0c-14.129 0-25.583 11.453-25.583 25.583s11.454 25.583 25.583 25.583l123.001 0c14.129 0 25.583-11.453 25.583-25.583s-11.454-25.583-25.583-25.583z"  horiz-adv-x="1024" />

    
    <glyph glyph-name="order" unicode="&#59057;" d="M329.673 714.818c-12 4.992-25.728 2.24-34.88-6.944l-192-192c-12.512-12.512-12.512-32.736 0-45.248s32.736-12.512 45.248 0l137.376 137.376 0-530.752c0-17.696 14.336-32 32-32s32 14.304 32 32l0 608c0 12.928-7.808 24.608-19.744 29.568zM921.123 259.875c-12.512 12.512-32.736 12.512-45.248 0l-105.376-105.376 0 530.752c0 17.664-14.304 32-32 32s-32-14.336-32-32l0-608c0-12.928 7.776-24.64 19.744-29.568 3.968-1.664 8.128-2.432 12.256-2.432 8.32 0 16.512 3.264 22.624 9.376l160 160c12.512 12.512 12.512 32.736 0 45.248z"  horiz-adv-x="1024" />

    
    <glyph glyph-name="fanhui" unicode="&#59053;" d="M95.726 361.27l777.672 0-316.686-316.687c-8.876-8.877-8.876-23.269 0-32.145 8.877-8.877 23.269-8.877 32.145 0l355.489 355.488c0.025 0.025 0.039 0.053 0.063 0.078 1.027 1.037 1.953 2.169 2.767 3.388 0.381 0.569 0.643 1.186 0.966 1.78 0.385 0.705 0.81 1.382 1.122 2.131 0.313 0.756 0.494 1.546 0.722 2.326 0.188 0.642 0.437 1.256 0.569 1.919 0.292 1.469 0.448 2.959 0.448 4.451l0 0-0.001 0.012c-0.001 1.488-0.156 2.974-0.447 4.438-0.133 0.669-0.383 1.287-0.573 1.934-0.228 0.775-0.406 1.56-0.717 2.312-0.313 0.756-0.743 1.442-1.133 2.153-0.32 0.586-0.578 1.195-0.952 1.757-0.815 1.219-1.742 2.353-2.769 3.39-0.024 0.024-0.039 0.053-0.062 0.077l-355.489 355.489c-8.876 8.877-23.268 8.877-32.145 0-8.876-8.876-8.876-23.268 0-32.145l316.685-316.686-777.672 0c-12.554 0-22.731-10.177-22.731-22.73 0.001-12.555 10.177-22.731 22.731-22.731z"  horiz-adv-x="1024" />

    
    <glyph glyph-name="fanhui-copy" unicode="&#59054;" d="M928.274 406.73l-777.672 0 316.686 316.687c8.876 8.877 8.876 23.269 0 32.145-8.877 8.877-23.269 8.877-32.145 0l-355.489-355.488c-0.025-0.025-0.039-0.053-0.063-0.078-1.027-1.037-1.953-2.169-2.767-3.388-0.381-0.569-0.643-1.186-0.966-1.78-0.385-0.705-0.81-1.382-1.122-2.131-0.313-0.756-0.494-1.546-0.722-2.326-0.188-0.642-0.437-1.256-0.569-1.919-0.292-1.469-0.448-2.959-0.448-4.451l0 0 0.001-0.012c0.001-1.488 0.156-2.974 0.447-4.438 0.133-0.669 0.383-1.287 0.573-1.934 0.228-0.775 0.406-1.56 0.717-2.312 0.313-0.756 0.743-1.442 1.133-2.153 0.32-0.586 0.578-1.195 0.952-1.757 0.815-1.219 1.742-2.353 2.769-3.39 0.024-0.024 0.039-0.053 0.062-0.077l355.489-355.489c8.876-8.877 23.268-8.877 32.145 0 8.876 8.876 8.876 23.268 0 32.145l-316.685 316.686 777.672 0c12.554 0 22.731 10.177 22.731 22.73-0.001 12.555-10.177 22.731-22.731 22.731z"  horiz-adv-x="1024" />

    
    <glyph glyph-name="fanhui-copy-copy" unicode="&#59055;" d="M534.73-32.274l0 777.672 316.687-316.686c8.877-8.876 23.269-8.876 32.145 0 8.877 8.877 8.877 23.269 0 32.145l-355.488 355.489c-0.025 0.025-0.053 0.039-0.078 0.063-1.037 1.027-2.169 1.953-3.388 2.767-0.569 0.381-1.186 0.643-1.78 0.966-0.705 0.385-1.382 0.81-2.131 1.122-0.756 0.313-1.546 0.494-2.326 0.722-0.642 0.188-1.256 0.437-1.919 0.569-1.469 0.292-2.959 0.448-4.451 0.448l0 0-0.012-0.001c-1.488-0.001-2.974-0.156-4.438-0.447-0.669-0.133-1.287-0.383-1.934-0.573-0.775-0.228-1.56-0.406-2.312-0.717-0.756-0.313-1.442-0.743-2.153-1.133-0.586-0.32-1.195-0.578-1.757-0.952-1.219-0.815-2.353-1.742-3.39-2.769-0.024-0.024-0.053-0.039-0.077-0.062l-355.489-355.489c-8.877-8.876-8.877-23.268 0-32.145 8.876-8.876 23.268-8.876 32.145 0l316.686 316.685 0-777.672c0-12.554 10.177-22.731 22.73-22.731 12.555 0.001 22.731 10.177 22.731 22.731z"  horiz-adv-x="1024" />

    
    <glyph glyph-name="fanhui-copy-copy-copy" unicode="&#59056;" d="M489.27 800.274l0-777.672-316.687 316.686c-8.877 8.876-23.269 8.876-32.145 0-8.877-8.877-8.877-23.269 0-32.145l355.488-355.489c0.025-0.025 0.053-0.039 0.078-0.063 1.037-1.027 2.169-1.953 3.388-2.767 0.569-0.381 1.186-0.643 1.78-0.966 0.705-0.385 1.382-0.81 2.131-1.122 0.756-0.313 1.546-0.494 2.326-0.722 0.642-0.188 1.256-0.437 1.919-0.569 1.469-0.292 2.959-0.448 4.451-0.448l0 0 0.012 0.001c1.488 0.001 2.974 0.156 4.438 0.447 0.669 0.133 1.287 0.383 1.934 0.573 0.775 0.228 1.56 0.406 2.312 0.717 0.756 0.313 1.442 0.743 2.153 1.133 0.586 0.32 1.195 0.578 1.757 0.952 1.219 0.815 2.353 1.742 3.39 2.769 0.024 0.024 0.053 0.039 0.077 0.062l355.489 355.489c8.877 8.876 8.877 23.268 0 32.145-8.876 8.876-23.268 8.876-32.145 0l-316.686-316.685 0 777.672c0 12.554-10.177 22.731-22.73 22.731-12.555-0.001-22.731-10.177-22.731-22.731z"  horiz-adv-x="1024" />

    
    <glyph glyph-name="apps" unicode="&#59051;" d="M387.264 416.32l-192 0c-52.928 0-96 43.072-96 96l0 192c0 52.928 43.072 96 96 96l192 0c52.928 0 96-43.072 96-96l0-192C483.264 459.36 440.192 416.32 387.264 416.32zM195.264 736.32c-17.632 0-32-14.368-32-32l0-192c0-17.632 14.368-32 32-32l192 0c17.632 0 32 14.368 32 32l0 192c0 17.632-14.368 32-32 32L195.264 736.32zM387.264-31.68l-192 0c-52.928 0-96 43.072-96 96l0 192c0 52.928 43.072 96 96 96l192 0c52.928 0 96-43.072 96-96l0-192C483.264 11.36 440.192-31.68 387.264-31.68zM195.264 288.32c-17.632 0-32-14.336-32-32l0-192c0-17.664 14.368-32 32-32l192 0c17.632 0 32 14.336 32 32l0 192c0 17.664-14.368 32-32 32L195.264 288.32zM832.128 416.32l-192 0c-52.928 0-96 43.072-96 96l0 192c0 52.928 43.072 96 96 96l192 0c52.928 0 96-43.072 96-96l0-192C928.128 459.36 885.056 416.32 832.128 416.32zM640.128 736.32c-17.664 0-32-14.368-32-32l0-192c0-17.632 14.336-32 32-32l192 0c17.664 0 32 14.368 32 32l0 192c0 17.632-14.336 32-32 32L640.128 736.32zM832.128-31.68l-192 0c-52.928 0-96 43.072-96 96l0 192c0 52.928 43.072 96 96 96l192 0c52.928 0 96-43.072 96-96l0-192C928.128 11.36 885.056-31.68 832.128-31.68zM640.128 288.32c-17.664 0-32-14.336-32-32l0-192c0-17.664 14.336-32 32-32l192 0c17.664 0 32 14.336 32 32l0 192c0 17.664-14.336 32-32 32L640.128 288.32z"  horiz-adv-x="1024" />

    
    <glyph glyph-name="liebiaomoshi" unicode="&#59052;" d="M922.514 106.389l0.069 0 0 0.42zM327.003 790.615l-220.512 0c-33.167 0-60.158-26.993-60.158-60.127l0-220.528c0-33.167 26.99-60.126 60.158-60.126l220.513 0c33.151 0 60.143 26.959 60.143 60.126l0 220.529c-0.001 33.133-26.993 60.126-60.144 60.126M329.786 730.491l0-220.528c0-1.524-1.259-2.815-2.783-2.815l-220.512 0c-1.522 0-2.848 1.292-2.848 2.815l0 220.528c0 1.574 1.292 2.815 2.848 2.815l220.513 0c1.556 0 2.782-1.243 2.782-2.815zM327.003 318.194l-220.512 0c-33.167 0-60.158-27.024-60.158-60.14l0-220.53c0-33.182 26.99-60.141 60.158-60.141l220.513 0c33.151 0 60.143 26.959 60.143 60.141l0 220.53c-0.001 33.115-26.993 60.14-60.144 60.14M329.786 258.054l0-220.53c0-1.556-1.259-2.813-2.783-2.813l-220.512 0c-1.522 0-2.848 1.257-2.848 2.813l0 220.53c0 1.555 1.292 2.815 2.848 2.815l220.513 0c1.556 0 2.782-1.26 2.782-2.815zM520.94 710.621c0.829-0.547 1.822-0.911 2.882-0.911l2.02 0c0.495-0.066 1.025-0.066 1.556 0l418.438 0c0.266-0.034 0.561-0.066 0.795-0.066 0.266 0 0.531 0.033 0.763 0.066l1.654 0c0.897 0 1.723 0.298 2.417 0.713 13.681 2.368 23.779 14.042 23.779 27.835 0 13.596-9.77 25.105-23.148 27.703-0.86 0.645-1.919 1.059-3.049 1.059l-425.229 0c-1.026 0-2.019-0.481-2.847-1.159-13.215-2.683-22.983-14.176-22.983-27.604 0-13.461 9.769-24.953 22.949-27.634zM520.541 478.354c0.86-0.779 2.02-1.292 3.279-1.292l425.228 0c1.028 0 1.956 0.447 2.784 1.06 13.446 2.498 23.381 14.075 23.381 27.769 0 13.793-10.067 25.434-23.648 27.802-0.761 0.447-1.621 0.679-2.516 0.679l-0.795-0.132c-0.661 0.165-1.657 0.233-2.613 0.132l-417.414-0.132c-0.697 0.165-1.658 0.233-2.617 0.132l-1.789 0c-0.927 0-1.755-0.266-2.518-0.813-13.41-2.549-23.279-14.107-23.279-27.668 0-13.295 9.472-24.689 22.518-27.536zM520.575 234.834c0.86-0.758 2.019-1.223 3.245-1.223l425.228 0c0.464 0 0.897 0.066 1.361 0.199 15.1 0.693 27.255 13.245 27.255 28.579 0 15.733-12.85 28.579-28.617 28.579-0.231 0-0.496-0.032-0.795-0.066l-420.889 0c-0.498 0.066-0.994 0.066-1.556 0l-1.987 0c-0.958 0-1.821-0.295-2.583-0.826-13.345-2.583-23.214-14.141-23.214-27.686 0-13.316 9.537-24.706 22.551-27.555zM950.903 61.569c-0.561 0.233-1.227 0.363-1.856 0.363l-425.228 0c-1.092 0-2.154-0.527-2.947-1.29-13.18-2.749-22.85-14.205-22.85-27.62 0-13.545 9.87-25.105 23.214-27.686 0.762-0.461 1.626-0.694 2.583-0.694l0.83 0.132c0.331-0.065 0.827-0.231 2.982-0.132l419.43 0.132c0.531-0.132 1.525-0.331 1.986-0.331 15.766 0 28.617 12.847 28.617 28.58 0 15.169-11.824 27.555-26.761 28.546z"  horiz-adv-x="1024" />

    
    <glyph glyph-name="activity_add" unicode="&#59049;" d="M170.858 780.771c0 22.762-18.385 40.972-40.973 40.972-22.763 0-40.973-18.21-40.973-40.972l69.164-811.926 0.7 0c2.802-19.611 19.786-34.844 40.448-34.844 22.412 0 40.798 18.21 40.798 40.798 0 2.626-0.35 5.253-0.7 7.704l-68.464 798.268zM843.406 572.405c-12.957 91.926-10.33 185.954-10.33 185.954-38.347-20.137-94.728-46.751-157.412-46.751-62.684 0-118.891 14.533-157.412 34.67-38.347 20.137-94.728 34.67-157.412 34.67-62.684 0-113.638-24.863-152.16-45l35.019-380.662c38.347 20.137 66.713 45 129.397 45 31.167 0 57.782-3.678 81.42-9.805 2.276 2.276 4.378 4.728 6.653 7.004 28.54 28.54 61.809 50.954 98.754 66.536 38.347 16.284 79.144 24.514 120.992 24.514 41.848 0 82.646-8.229 120.992-24.514 22.762-9.63 44.124-21.712 63.736-36.42-5.603 34.67-15.584 97.53-22.238 144.805zM680.916 418.494c-132.898 0-240.584-107.684-240.584-240.584 0-132.898 107.684-240.584 240.584-240.584 132.898 0 240.584 107.684 240.584 240.584 0 132.898-107.684 240.584-240.584 240.584zM804.184 144.292l-89.65 0 0-89.65c0-18.561-15.058-33.619-33.619-33.619s-33.619 15.058-33.619 33.619l0 89.65-89.65 0c-18.561 0-33.619 15.058-33.619 33.619s15.058 33.619 33.619 33.619l89.65 0 0 89.65c0 18.561 15.058 33.619 33.619 33.619s33.619-15.058 33.619-33.619l0-89.65 89.65 0c18.561 0 33.619-15.058 33.619-33.619 0.175-18.561-15.058-33.619-33.619-33.619z"  horiz-adv-x="1024" />

    
    <glyph glyph-name="activity_passed" unicode="&#59050;" d="M558.674 464.019c38.347 16.284 78.968 24.514 120.992 24.514s82.646-8.229 120.992-24.514c22.763-9.63 44.3-21.888 63.91-36.595-5.603 34.494-15.758 97.53-22.412 144.805-12.957 91.926-10.33 185.954-10.33 185.954-38.522-20.137-94.728-46.751-157.412-46.751-62.684 0-119.066 14.533-157.412 34.67-38.522 20.137-94.728 34.67-157.412 34.67-62.684 0-113.813-24.863-152.16-45l35.019-380.662c38.522 20.137 66.712 45 129.397 45 31.167 0 57.782-3.678 81.42-9.63 2.276 2.452 4.553 4.728 6.829 7.004 28.366 28.54 61.634 50.954 98.58 66.536zM128.635 821.743c-22.762 0-40.972-18.21-40.972-40.972l68.988-811.926 81.771 7.004-68.988 804.922c0 22.762-18.21 40.973-40.798 40.973zM238.771-25.202c0-22.588-18.385-40.798-40.798-40.798l0 0c-22.588 0-40.798 18.385-40.798 40.798l0 0c0 22.588 18.385 40.798 40.798 40.798l0 0c22.412 0.175 40.798-18.21 40.798-40.798l0 0zM679.666 418.494c-132.898 0-240.584-107.684-240.584-240.584 0-132.898 107.684-240.584 240.584-240.584 132.898 0 240.584 107.684 240.584 240.584 0 132.898-107.684 240.584-240.584 240.584zM846.358 235.343l-184.728-184.728c-5.954-5.954-13.833-8.93-21.713-8.93s-15.758 2.977-21.713 8.93l-105.058 105.058c-11.906 11.906-11.906 31.343 0 43.249s31.343 11.906 43.25 0l83.522-83.522 163.015 163.015c11.906 11.906 31.343 11.906 43.249 0 12.257-11.732 12.257-31.167 0.175-43.074z"  horiz-adv-x="1024" />

    
    <glyph glyph-name="flag" unicode="&#59048;" d="M885.407 761.553c-14.94 0-26.28-9-37.62-20.34-15.3-15.282-60.12-47.88-167.598-47.88-98.082 0-175.86 90-302.58 90-122.04 0-174.942-39.78-174.942-39.78l0 30.78c0 24.84-20.16 45-45 45s-45-20.16-45-45l0-774c0-24.84 20.16-45 45-45s45 20.16 45 45l0 194.742c0 0 54 48.258 162 48.258 126.72 0 228.402-90 338.022-90 93.618 0 162 40.5 199.098 77.742 11.88 11.898 20.88 32.418 20.88 51.66l0 438.84c0 21.978-15.12 39.978-37.26 39.978zM274.667 351.333c0-19.8-16.2-36-36-36s-36 16.2-36 36l0 288c0 19.8 16.2 36 36 36s36-16.2 36-36l0-288z"  horiz-adv-x="1024" />

    
    <glyph glyph-name="activity" unicode="&#59047;" d="M804.405653 635.313769c-40.886199 13.886265-195.022719-10.978029-291.098891 59.190077C366.494045 821.886025 260.558317 836.087469 188.224896 830.341604c-72.332399-5.745864-109.513206-66.924225-109.513206-66.924225l0.1361-0.298805c-9.715269-16.84669-12.658298-37.95852-6.367011-58.19133l223.48905-718.788693c11.33107-36.44198 48.28675-56.212256 82.542948-44.158732 34.256198 12.053524 52.841485 51.366901 41.510416 87.808882l-59.354829 190.896748c74.397431 55.165414 172.84972 9.79304 204.452485-0.083911 34.543747-10.794857 390.780171-209.423707 390.780171-12.954033S861.618703 615.883231 804.405653 635.313769zM499.525897 349.363132c-26.137287 6.313799-118.198006 38.600133-177.289845-5.066389L206.740598 715.75587c62.847373 6.561439 164.647921-44.213991 258.985496-107.481943 74.722842-42.182728 230.490511-49.112558 262.290775-57.46069 44.49847-11.68104 111.299899-140.312676 111.299899-258.424724S526.392802 342.873324 499.525897 349.363132z"  horiz-adv-x="1024" />

    
    <glyph glyph-name="help" unicode="&#59046;" d="M805.078 616.243l-158.208 0 0 52.437c0 28.959-23.616 52.437-52.742 52.437l-237.314 0 0 26.219c0 28.959-23.61 52.437-52.736 52.437l-52.738 0c-29.124 0-52.736-23.479-52.736-52.437l0-734.126c0-28.967 23.613-52.438 52.736-52.438l52.738 0c29.127 0 52.736 23.471 52.736 52.438l0 235.97 237.314 0 0-26.227c0-28.96 24.802-52.438 52.742-52.438l158.208 0c29.131 0 52.74 23.479 52.74 52.438l0 340.853c-0.001 28.959-23.61 52.438-52.74 52.438zM304.078 39.428c0-14.48-11.806-26.218-26.371-26.218-14.562 0-26.368 11.738-26.368 26.218l0 681.689c0 14.48 11.806 26.219 26.368 26.219 14.565 0 26.371-11.739 26.371-26.219l0-681.689zM594.129 327.836c0-14.481-11.801-26.218-26.369-26.218l-210.946 0c0 15.484 0 11.737 0 26.218l0 314.625c0 14.479 0 12.283 0 26.219l210.946 0c14.569 0 26.369-11.74 26.369-26.219l0-314.625zM805.078 222.953c0-14.473-11.802 0-26.371 0l-131.838 0 0 314.633c0 14.479 0 12.276 0 26.219l131.838 0c14.57 0 26.371-11.739 26.371-26.219l0-314.633z"  horiz-adv-x="1024" />

    
    <glyph glyph-name="feiji" unicode="&#59045;" d="M443.813 304.299l909.517 406.207-1029.032-345.532 139.453-343.729-19.939 283.054zM505.72-30.187l179.923 163.588-194.486 137.161 14.564-300.75zM508.682 297.52l338.453-223.586c15.016-8.435 32.348-13.263 50.818-13.263 29.541 0 56.172 12.322 75.057 32.069l13.823 18.016 487.697 645.093-965.849-458.329zM199.347 579.861l0-0.131c-25.685-3.984-45.355-26.039-45.355-52.731 0-19.795 10.842-37.035 26.902-46.268-0.007-0.022-0.019-0.039-0.024-0.06l103.773-67.136 1076.318 339.708-1161.612-173.382z"  horiz-adv-x="1712" />

    
    <glyph glyph-name="icon" unicode="&#59044;" d="M1094.956 332.733l-366.881-114.709-451.843 396.045 350.146-426.597-392.354-125.02-202.025 801.548 1062.956-531.267zM638.761 124.583l0-220.583-129.158 182.268 129.158 38.316z"  horiz-adv-x="1134" />

    
    <glyph glyph-name="qunawanhuodong" unicode="&#59043;" d="M331.998-20.964l202.989 140.554-393.293 544.527 190.304-685.08zM692.004-20.964l0 225-585.006 584.953 585.006-809.953zM715.265 244.358l201.713 139.642-682.685 341.381 480.971-481.023zM78.399 823.737c8.205 6.772 18.389 10.263 28.627 10.263 6.85 0 13.727-1.563 20.108-4.741l809.978-404.99c14.248-7.111 23.651-21.203 24.745-37.091 1.146-15.837-6.173-31.128-19.249-40.165l-205.725-142.455c0-0.182 0.13-0.365 0.13-0.547l0-225c0-19.536-12.555-36.805-31.128-42.822-4.558-1.484-9.22-2.187-13.858-2.187-14.169 0-27.871 6.72-36.467 18.651l-94.162 130.394-203.719-141.049c-7.606-5.262-16.592-7.996-25.605-7.996-5.157 0-10.314 0.886-15.291 2.708-13.727 4.923-24.146 16.228-28.054 30.268l-225.078 810.006c-4.766 17.113 1.042 35.451 14.743 46.756l0 0z"  horiz-adv-x="1024" />

    
    <glyph glyph-name="sina" unicode="&#59042;" d="M742.973 394.157c-37.334 7.229-19.152 27.322-19.152 27.322s36.518 60.249-7.248 104.035c-54.259 54.24-186.086-6.903-186.086-6.903-50.352-15.638-36.989 7.152-29.856 45.84 0 45.629-15.638 122.832-149.751 77.203-133.968-45.831-249.043-206.468-249.043-206.468-79.987-106.752-69.369-189.254-69.369-189.254 19.987-182.141 213.523-232.157 364.051-243.994 158.352-12.413 372.096 54.586 436.877 192.269 64.819 137.894-52.944 192.461-90.423 199.949l0 0zM408.24 53.28c-157.238-7.325-284.314 71.52-284.314 176.4 0 105.052 127.075 189.274 284.323 196.522 157.286 7.267 284.621-57.591 284.621-162.374 0-104.88-127.344-203.366-284.631-210.548l0 0zM376.858 357.034c-158.103-18.509-139.834-166.617-139.834-166.617s-1.632-46.915 42.384-70.781c92.515-50.103 187.766-19.786 235.92 42.374 48.134 62.179 19.911 213.379-138.471 195.024l0 0zM336.951 149.146c-29.482-3.466-53.289 13.574-53.289 38.256 0 24.605 21.129 50.352 50.659 53.414 33.926 3.254 56.016-16.291 56.016-41.002 0-24.576-23.933-47.289-53.386-50.669l0 0zM430.185 228.537c-10.003-7.449-22.291-6.432-27.562 2.534-5.529 8.755-3.446 22.791 6.643 30.134 11.712 8.717 23.894 6.192 29.184-2.534 5.328-8.957 1.517-22.416-8.266-30.134l0 0zM819.994 458.266c12.729 0 23.588 9.428 25.392 21.744 0.211 0.922 0.346 1.748 0.346 2.774 19.315 173.597-142.282 143.731-142.282 143.731-14.352 0-25.834-11.606-25.834-26.103 0-14.217 11.482-25.805 25.834-25.805 116.083 25.584 90.461-90.442 90.461-90.442-0.009-14.391 11.664-25.901 26.083-25.901l0 0zM801.159 761.337c-55.882 13.094-113.328 1.805-129.417-1.296-1.238-0.106-2.419-1.238-3.571-1.478-0.537-0.125-0.883-0.672-0.883-0.672-15.897-4.512-27.494-19.2-27.494-36.566 0-20.678 16.762-37.709 37.709-37.709 0 0 20.314 2.736 34.128 8.112 13.671 5.52 129.369 4.118 186.874-92.409 31.334-70.445 13.776-117.581 11.577-125.165 0 0-7.459-18.288-7.459-36.326 0-20.794 16.762-33.84 37.536-33.84 17.386 0 31.949 2.333 36.24 31.728l0.221 0c61.718 205.671-75.485 302.304-175.459 325.623l0 0zM801.159 761.337z"  horiz-adv-x="1025" />

    
    <glyph glyph-name="qzone" unicode="&#59041;" d="M991.767 492.48c-8.88 25.44-331.5 48.18-331.5 48.18s-119.34 300.359-148.201 300.359-148.26-300.359-148.26-300.359-321.241-22.62-331.5-48.18c-10.26-25.561 239.879-233.82 239.879-233.82s-73.86-316.26-56.64-330.121c17.28-13.86 296.46 155.879 296.46 155.879s277.079-175.62 296.519-155.879c14.279 14.521-24.06 192.24-44.82 282.121-0.66 2.88-108.361-12-227.76-12.78-106.02-0.72-224.279 6.48-224.279 6.48l276.06 205.5c0 0-85.801 15.66-150.96 21.54-93.12 8.4-174.72 8.22-164.58 10.8 16.14 4.08 129.3 14.7 239.879 10.8 100.919-3.6 200.761-21.54 200.761-21.54l-276.06-196.86c0 0 60.3-9.3 110.34-11.22 95.34-3.66 211.68-1.02 211.44 0-3.54 15.06-6.66 35.28-6.66 35.28s248.759 208.38 239.879 233.82z"  horiz-adv-x="1025" />

    
    <glyph glyph-name="qq" unicode="&#59040;" d="M889.927 336.972c-16.105 39.724-43.097 73.402-62.77 95.187 7.292 12.181 11.449 24.94 11.449 38.148 0 27.574-16.967 53.258-46.022 75.362-14.779 142.784-135.436 254.14-282.101 254.14-146.703 0-267.351-111.356-282.128-254.145-29.056-22.099-46.029-47.783-46.029-75.357 0-13.207 4.147-25.966 11.444-38.148-19.662-21.783-46.657-55.462-62.762-95.187-26.092-64.307-30.91-121.181-16.766-158.369 12.753-33.525 35.055-30.534 53.438 0.448 4.724 7.965 11.856 19.026 19.798 31.041 13.591-40.237 36.284-77.024 66.197-108.238-18.347-5.334-34.218-11.67-43.218-18.966-34.033-27.693-35.547-59.897-6.687-84.537 37.317-31.92 188.423-47.536 276.185-0.609 10.099-0.811 20.215-1.353 30.532-1.353 11.022 0 21.886 0.541 32.649 1.453 87.743-47.058 239.073-31.411 276.416 0.509 28.822 24.646 27.315 56.846-6.687 84.544-9.325 7.554-25.932 14.013-45.093 19.507 29.697 31.079 52.189 67.653 65.69 107.696 7.937-12.016 15.068-23.075 19.798-31.046 18.378-30.978 40.69-33.973 53.447-0.444 14.137 37.184 9.313 94.058-16.778 158.365z"  horiz-adv-x="1024" />

    
    <glyph glyph-name="wxfriends" unicode="&#59039;" d="M404.341 791.815c35.262 9.354 71.461 14.06 107.687 14.06 56.636 0 111.712-11.14 163.755-33.165l-6.916-305.769-264.525 324.875zM147.44 596.227c18.425 31.662 40.704 60.632 66.273 86.087 40.025 40.025 86.824 71.092 139.179 92.352l211.405-221.071-416.858 42.632zM104.185 276.257c-9.326 35.122-14.06 71.318-14.06 107.743 0 56.693 11.168 111.769 33.165 163.699l305.798-6.86-324.904-264.582zM299.773 19.44c-31.436 18.311-60.349 40.591-86.03 66.273-40.054 39.968-71.121 86.768-92.352 139.179l221.071 211.32-42.689-416.773zM512.028-37.875c-56.636 0-111.712 11.14-163.755 33.109l6.916 305.769 264.525-324.875c-35.318-9.298-71.488-14.002-107.687-14.002zM459.759 214.376l416.858-42.632c-18.283-31.38-40.507-60.292-66.301-86.03-39.968-40.082-86.824-71.149-139.179-92.408l-211.377 221.071zM594.97 227.105l324.875 264.582c9.326-35.149 14.032-71.375 14.032-107.687 0-56.862-11.168-111.882-33.137-163.755l-305.769 6.86zM724.227 748.531c31.408-18.227 60.377-40.478 86.087-66.216 40.082-39.967 71.149-86.824 92.352-139.179l-221.071-211.377 42.632 416.773z"  horiz-adv-x="1024" />

    
    <glyph glyph-name="wx" unicode="&#59038;" d="M688.21 526.357c11.469 0 22.712-0.901 33.894-2.191-30.556 141.394-182.108 246.333-355.348 246.333-193.679 0-352.38-131.379-352.379-298.25 0-96.275 52.797-175.206 141.066-236.728l-35.227-105.431 123.023 61.358c44.134-8.684 79.524-17.591 123.494-17.592 10.998 0 21.915 0.635 32.789 1.434-6.779 23.511-10.875 48.005-10.875 73.523 0.021 153.088 132.116 277.545 299.562 277.545zM498.729 621.487c26.542 0 44.155-17.428 44.155-43.848 0-26.276-17.592-43.909-44.155-43.909-26.317 0-52.921 17.633-52.92 43.909 0 26.419 26.604 43.848 52.92 43.848zM252.314 533.73c-26.419 0-53.125 17.632-53.125 43.909 0 26.419 26.706 43.848 53.125 43.848 26.317 0 43.807-17.428 43.807-43.848 0-26.276-17.49-43.909-43.807-43.909zM1009.644 253.01c0 140.248-140.902 254.464-299.049 254.464-167.712 0-299.786-114.217-299.786-254.464 0-140.513 132.076-254.403 299.786-254.403 35.063 0 70.328 8.643 105.554 17.49l96.604-52.716-26.48 87.757c70.779 52.654 123.372 122.696 123.372 201.871zM613.376 297.043c-17.49 0-35.226 17.203-35.226 34.918 0 17.531 17.736 35.082 35.226 35.082 26.726 0 43.991-17.531 43.991-35.082 0.021-17.715-17.265-34.918-43.991-34.918zM807.158 297.043c-17.531 0-35.082 17.203-35.082 34.918 0 17.531 17.531 35.082 35.082 35.082 26.255 0 43.95-17.531 43.95-35.082 0-17.714-17.695-34.918-43.95-34.918z"  horiz-adv-x="1024" />

    
    <glyph glyph-name="weixin" unicode="&#59037;" d="M1050.341 51.622c47.353 43.275 76.091 100.129 76.091 162.389 0 108.358-87.032 200.309-207.774 232.882-7.205 173.629-183.947 312.616-400.957 312.616-221.583 0-401.209-144.891-401.209-323.63 0-82.081 37.881-157.022 100.307-214.067 19.534-17.857-3.34-66.711-31.436-107.071 47.486 13.116 98.14 21.651 142.473 21.651 20.764 0 40.141-1.87 57.158-6.023 41.535-11.735 86.2-18.127 132.707-18.127 9.03 0 17.994 0.271 26.88 0.746 47.744-85.201 154.034-144.495 277.486-144.495 35.283 0 69.163 4.845 100.676 13.758 12.904 3.145 27.608 4.567 43.354 4.567 33.637 0 72.059-6.479 108.081-16.429-21.307 30.622-38.661 67.676-23.839 81.221l0 0.009zM517.701 171.365c-40.068 0-79.31 5.347-116.622 15.893l-1.031 0.291-1.045 0.257c-20.963 5.111-44.902 7.708-71.16 7.708-15.085 0-30.159-0.833-44.896-2.247 3.128 34.642-10.147 57.448-26.264 72.185-26.041 23.793-46.263 50.54-60.113 79.508-13.909 29.088-20.962 59.676-20.962 90.919 0 68.219 33.921 133.144 95.513 182.83 31.449 25.368 68.292 45.358 109.502 59.42 43.302 14.774 89.426 22.266 137.084 22.266 47.651 0 93.775-7.491 137.078-22.266 41.213-14.062 78.054-34.053 109.509-59.42 54.964-44.339 87.872-100.829 94.317-160.954l0 0c-11.978 1.158-24.17 1.764-36.545 1.764-168.096 0-304.36-109.912-304.36-245.509 0-14.531 1.575-28.771 4.575-42.608 0 0.007 0 0.007 0 0.007-1.525-0.014-3.053-0.046-4.582-0.046l0 0zM1010.457 95.252c-9.553-8.733-22.154-24.785-24.44-49.898-6.604 0.377-13.255 0.583-19.919 0.583-21.055 0-40.353-2.103-57.364-6.253l-1.037-0.258-1.031-0.284c-27.051-7.65-55.511-11.525-84.599-11.525-34.575 0-68.019 5.427-99.382 16.123-29.677 10.119-56.167 24.48-78.724 42.673-43.295 34.933-67.148 80.243-67.148 127.591 0 47.36 23.853 92.672 67.148 127.597 22.556 18.193 49.041 32.551 78.724 42.681 31.369 10.696 64.807 16.123 99.382 16.123 34.582 0 68.019-5.427 99.389-16.123 29.677-10.128 56.167-24.488 78.724-42.681 43.295-34.926 67.148-80.236 67.148-127.597 0-21.55-4.886-42.686-14.51-62.816-9.71-20.309-23.958-39.129-42.355-55.942l0 0.007zM341.639 499.145c0.325 34.118 21.671 61.613 47.962 61.613 26.489 0 47.962-27.917 47.962-62.352 0-34.437-21.473-62.354-47.962-62.354-26.291 0-47.637 27.502-47.956 61.574l-0.007 1.52zM591.128 499.145c0.318 34.118 21.664 61.613 47.956 61.613 26.489 0 47.962-27.917 47.962-62.352 0-34.437-21.473-62.354-47.962-62.354-26.291 0-47.637 27.502-47.956 61.574l0 1.52zM701.701 259.632c0.318 26.226 16.747 47.321 36.961 47.321 20.415 0 36.962-21.519 36.962-48.056 0-26.543-16.546-48.061-36.962-48.061-20.215 0-36.644 21.102-36.962 47.282l0 1.513zM879.787 259.632c0.318 26.226 16.747 47.321 36.962 47.321 20.414 0 36.968-21.519 36.968-48.056 0-26.543-16.553-48.061-36.968-48.061-20.215 0-36.643 21.102-36.962 47.282l0 1.513zM879.787 259.632z"  horiz-adv-x="1308" />

    
    <glyph glyph-name="icon15" unicode="&#59035;" d="M806.142 743.833c-64.843 29.021-356.882 146.183-643.024-123.695 0 0-300.47-300.054 25.957-494.086 39.176-23.241 102.517-38.656 120.978-50.362 14.703-9.404 3.757-142.908 20.619-148.842 34.648-12.217 177.342 130.96 193.394 140.48 23.838 14.134 391.627 82.215 452 335.31 45.671 191.544-105.097 312.232-169.924 341.196zM378.925 404.024c-18.712-38.829-57.291-59.082-86.138-45.227-28.827 13.836-37.037 56.539-18.307 95.368s57.291 59.063 86.137 45.228c28.849-13.856 37.058-56.54 18.308-95.369zM589.952 395.198c-25.341-52.511-77.467-79.912-116.488-61.162-38.983 18.712-50.063 76.444-24.762 128.955 25.341 52.492 77.485 79.894 116.468 61.144 39.041-18.692 50.102-76.445 24.782-128.936zM763.325 404.024c-18.73-38.829-57.309-59.082-86.157-45.227-28.828 13.836-37.057 56.539-18.288 95.368 18.692 38.829 57.291 59.063 86.119 45.228 28.868-13.856 37.038-56.54 18.326-95.369z"  horiz-adv-x="1024" />

    
    <glyph glyph-name="yonghufankui" unicode="&#59036;" d="M511.999 451.321c-19.735 0-35.732-16.139-35.732-36.051s15.997-36.053 35.732-36.053c19.736 0 35.734 16.143 35.734 36.053s-15.997 36.051-35.734 36.051zM386.932 451.321c-19.735 0-35.734-16.139-35.734-36.051s15.998-36.053 35.734-36.053c19.738 0 35.738 16.143 35.738 36.053s-15.998 36.051-35.738 36.051zM637.068 451.321c-19.735 0-35.734-16.139-35.734-36.051s15.998-36.053 35.734-36.053 35.734 16.143 35.734 36.053-15.999 36.051-35.734 36.051zM511.999 834c-292.382 0-449.999-157.617-449.999-450.001 0-292.389 157.617-449.999 449.999-449.999 292.39 0 450.001 157.61 450.001 449.999 0 292.384-157.611 450.001-450.001 450.001zM572.978 176.111c-5.188-5.533-10.812-13.697-16.323-21.794-13.368-19.638-27.189-39.944-46.14-40.311-0.172-0.004-0.346-0.004-0.518-0.004-19.339-0.004-34.492 20.423-49.148 40.179-7.044 9.501-14.236 18.995-20.538 24.299-8.101 1.837-16.044 3.96-23.843 6.387-1.177 0.115-2.347 0.257-3.519 0.348l2.416 0c-107.654 33.931-184.615 122.573-184.615 226.908 0 133.585 125.917 241.876 281.247 241.876 155.331 0 281.253-108.291 281.253-241.876 0.001-115.556-94.295-212.033-220.273-236.013z"  horiz-adv-x="1024" />

    
    <glyph glyph-name="authcode" unicode="&#59034;" d="M857.221 838.597l-696.853 0c-58.313 0-105.584-47.276-105.584-105.584l0-696.853c0-58.31 47.271-105.584 105.584-105.584l696.853 0c58.319 0 105.586 47.273 105.586 105.584l0 696.852c0 58.309-47.267 105.585-105.586 105.585zM741.079 99.508c-0.711-57.103-14.702-83.136-73.909-84.468-59.504-1.341-85.323 27.408-84.468 84.468 0.681 45.699 0.434 80.291 0 116.144-59.123 0.298-73.603 0.605-137.258 0 0.217-15.159-0.217-54.897 0-105.587 0.304-71.197-20.817-95.385-84.467-95.025-62.459 0.353-73.908 39.522-73.908 105.587 0 37.108-0.016 306.491 0 454.009 0.01 88.087 122.747 167.481 179.492 168.935 30.19 0.774 72.095 0.031 105.584 0 60.071-0.062 168.624-83.859 168.935-168.935 0.062-16.291-0.33-366.82 0-432.894 0.249-47.668 0.269-20.127 0-42.234zM540.47 585.194c-9.012-0.298-28.118-0.236-52.791 0-20.663 0.207-41.353-30.5-42.233-52.791-0.798-20.26-0.185-91.231 0-158.377 81.23 0 137.258 0 137.258 0s0.227 141.642 0 158.377c-0.267 19.683-17.444 53.627-42.233 52.791z"  horiz-adv-x="1024" />

    
    <glyph glyph-name="code-copy" unicode="&#59033;" d="M897.657 699.57c0 28.468-23.132 51.654-51.675 51.654l-648.187 0c-28.509 0-51.642-23.186-51.642-51.654l0-648.148c0-28.621 23.132-51.729 51.642-51.729l648.186 0c28.543 0 51.675 23.107 51.675 51.729l0 648.148zM958.552 36.731c0-54.096-43.856-97.958-97.934-97.958l-677.425 0c-54.08 0-97.934 43.862-97.934 97.958l0 677.383c0 54.16 43.855 97.952 97.934 97.952l677.425 0c54.08 0 97.934-43.792 97.934-97.952l0-677.383zM692.59 557.436l-53.638 0 0 216.866 53.638 0 0-216.866zM356.791 768.383l0-317.845 292.641 0 0-143.134 283.587 0 0-54.685-285.153 0 0-136.003-53.774 0 0 280.356-172.352 0 0-246.557-320.419 0 0 52.912 267.333 0 0 193.644-66.266 0 0 369.644 54.399 1.665z"  horiz-adv-x="1024" />

    
    <glyph glyph-name="lock" unicode="&#59031;" d="M512 128c-17.664 0-32 14.304-32 32l0 96c0 17.696 14.336 32 32 32s32-14.304 32-32l0-96C544 142.304 529.664 128 512 128zM832-64 192-64c-52.928 0-96 43.072-96 96L96 384c0 52.928 43.072 96 96 96l640 0c52.928 0 96-43.072 96-96l0-352C928-20.928 884.928-64 832-64zM192 416c-17.632 0-32-14.368-32-32l0-352c0-17.664 14.368-32 32-32l640 0c17.664 0 32 14.336 32 32L864 384c0 17.632-14.336 32-32 32L192 416zM736 416c-17.696 0-32 14.336-32 32L704 577.984C704 686.752 601.76 768 510.336 768 416.768 768 320 697.088 320 578.432L320 448c0-17.664-14.336-32-32-32s-32 14.336-32 32L256 578.432C256 737.152 385.312 832 510.336 832 632.224 832 768 727.68 768 577.984L768 448C768 430.336 753.696 416 736 416z"  horiz-adv-x="1024" />

    
    <glyph glyph-name="unlock" unicode="&#59032;" d="M512 128c-17.664 0-32 14.304-32 32l0 96c0 17.696 14.336 32 32 32s32-14.304 32-32l0-96C544 142.304 529.664 128 512 128zM832-64 192-64c-52.928 0-96 43.072-96 96L96 416c0 52.928 43.072 96 96 96l640 0c52.928 0 96-43.072 96-96l0-384C928-20.928 884.928-64 832-64zM192 448c-17.632 0-32-14.368-32-32l0-384c0-17.664 14.368-32 32-32l640 0c17.664 0 32 14.336 32 32L864 416c0 17.632-14.336 32-32 32L192 448zM288 480c-17.664 0-32 14.336-32 32L256 576.672c0 160.064 135.392 255.744 266.304 255.744 100.672 0 198.72-59.872 244.032-148.992 8-15.744 1.728-35.008-14.016-43.04-15.776-8-35.04-1.696-43.04 14.016-34.656 68.16-109.792 113.984-186.976 113.984C422.848 768.416 320 696.704 320 576.672L320 512C320 494.336 305.664 480 288 480z"  horiz-adv-x="1024" />

    
    <glyph glyph-name="bug" unicode="&#59029;" d="M969.143 326.095q0-14.857-10.857-25.714t-25.714-10.857l-128 0q0-97.714-38.286-165.714l118.857-119.429q10.857-10.857 10.857-25.714t-10.857-25.714q-10.286-10.857-25.714-10.857t-25.714 10.857l-113.143 112.571q-2.857-2.857-8.571-7.429t-24-16.286-37.143-20.857-46.857-16.571-55.429-7.429l0 512-73.143 0 0-512q-29.143 0-58 7.714t-49.714 18.857-37.714 22.286-24.857 18.571l-8.571 8-104.571-118.286q-11.429-12-27.429-12-13.714 0-24.571 9.143-10.857 10.286-11.714 25.429t8.857 26.571l115.429 129.714q-33.143 65.143-33.143 156.571l-128 0q-14.857 0-25.714 10.857t-10.857 25.714 10.857 25.714 25.714 10.857l128 0 0 168-98.857 98.857q-10.857 10.857-10.857 25.714t10.857 25.714 25.714 10.857 25.714-10.857l98.857-98.857 482.286 0 98.857 98.857q10.857 10.857 25.714 10.857t25.714-10.857 10.857-25.714-10.857-25.714l-98.857-98.857 0-168 128 0q14.857 0 25.714-10.857t10.857-25.714zM694.857 655.238l-365.714 0q0 76 53.429 129.429t129.429 53.429 129.429-53.429 53.429-129.429z"  horiz-adv-x="1024" />

    
    <glyph glyph-name="link" unicode="&#59030;" d="M435.266 761.085l76.406-76.406c47.424-47.424 57.962-121.194 31.616-179.157l-179.157 179.157c-21.077 21.077-52.693 21.077-73.77 0l-73.77-73.77c-21.077-21.077-21.077-52.693 0-73.77l179.157-179.157c-57.961-28.982-131.733-18.442-179.157 31.616l-76.406 76.405c-60.598 60.598-60.598 160.715 0 223.946l73.77 73.77c57.962 60.598 158.079 60.598 221.311-2.635zM659.212 239.422c-21.077-21.077-52.693-21.077-73.77 0l-223.946 223.946c-21.077 21.077-21.077 52.693 0 73.77s52.693 21.077 73.77 0l223.946-223.946c21.077-21.077 21.077-55.328 0-73.77zM735.616 89.247l73.77 73.77c21.077 21.077 21.077 52.693 0 73.77l-179.157 179.157c57.961 28.982 131.733 18.442 179.157-31.616l79.04-71.136c60.598-60.598 60.598-160.715 0-223.946l-81.675-81.675c-60.598-60.598-160.714-60.598-223.946 0l-71.136 81.675c-47.424 47.424-57.962 121.194-31.616 179.157l179.157-179.157c21.077-21.077 55.328-21.077 76.406 0z"  horiz-adv-x="1028" />

    
    <glyph glyph-name="tixingchupin" unicode="&#59028;" d="M523.392 778.752C462.144 730.304 334.016 662.4 241.856 597.056L241.728 596.992C240.64 596.352 239.616 592.704 238.592 592.128 227.648 585.984 222.72 569.152 163.584 569.152L48 569.152C18.432 569.152 0 555.328 0 524.16l0-277.056c0-31.104 16.896-46.528 48-46.528l115.968 0c58.944-0.128 63.744-16.896 74.56-22.912 1.024-0.64 2.112-4.224 3.136-4.864l0.128-0.064c89.28-65.344 218.304-138.624 281.536-185.024 19.008-14.08 80.896-58.112 80.896 28.416 0 101.12 0 368.832 0 368.832s0 268.736 0 369.856C604.224 841.472 541.952 793.472 523.392 778.752zM980.032 432l-196.864 0c-22.336 0-40.384-18.112-40.384-40.384l0-12.608c0-22.336 18.048-40.448 40.384-40.448l196.864 0c22.336 0 40.384 18.112 40.384 40.448L1020.416 391.552C1020.416 413.824 1002.368 432 980.032 432zM705.152 587.776c10.432-18.368 31.168-22.912 46.272-10.304l161.792 135.808c15.104 12.672 18.88 37.824 8.448 56.192l-5.888 10.432c-10.496 18.368-31.168 22.976-46.336 10.24l-161.728-135.808c-15.104-12.672-18.944-37.824-8.448-56.192L705.152 587.776zM751.36 192.32c-15.04 12.672-35.84 8.128-46.272-10.24l-5.888-10.368c-10.496-18.368-6.656-43.52 8.448-56.192l161.728-135.808c15.104-12.672 35.84-8.128 46.336 10.24l5.888 10.368c10.432 18.368 6.656 43.52-8.448 56.192L751.36 192.32z"  horiz-adv-x="1024" />

    
    <glyph glyph-name="transactions" unicode="&#59027;" d="M303.981293 307.527304c-17.659195 0-31.977295-14.302751-31.977295-31.977295 0-17.674545 14.3181-31.977295 31.977295-31.977295l180.399673 0 0-95.932909c0-17.675568 14.3181-31.977295 31.977295-31.977295 17.659195 0 31.977295 14.302751 31.977295 31.977295l0 95.932909 171.353646 0c17.659195 0 31.977295 14.302751 31.977295 31.977295 0 17.675568-14.3181 31.977295-31.977295 31.977295L548.335556 307.527304l0 95.932909 171.353646 0c17.659195 0 31.977295 14.302751 31.977295 31.977295 0 17.674545-14.3181 31.977295-31.977295 31.977295L556.069705 467.414805l104.176664 104.176664c12.491499 12.491499 12.491499 32.727379 0 45.217854s-32.727379 12.491499-45.217854 0l-100.147908-100.147908-100.117209 100.117209c-12.491499 12.491499-32.727379 12.491499-45.217854 0-12.491499-12.491499-12.491499-32.727379 0-45.217854l104.145965-104.145965L303.981293 467.414805c-17.659195 0-31.977295-14.302751-31.977295-31.977295 0-17.675568 14.3181-31.977295 31.977295-31.977295l180.399673 0 0-95.932909L303.981293 307.527304zM911.553998 767.455345 144.093792 767.455345c-70.641897 0-143.549394-69.508074-143.549394-140.152017l0-159.891593 0-31.973202c0 0-1.523703-23.992437 24.458041-33.986045 24.482601-8.993838 43.810808 11.377118 43.810808 11.377118l128.404462 127.441531c12.491499 12.491499 12.980639 32.727379 0.48914 45.217854-12.491499 12.491499-40.045041 12.491499-52.53654 0l-80.157621-72.849168L65.012689 627.302305c0 35.264155 43.815925 75.683726 79.081103 75.683726l767.460206 0c35.264155 0 47.829332-40.419572 47.829332-75.683726l0-159.8875c0 0-0.947582-31.977295 31.734772-31.977295s32.733519 31.977295 32.733519 31.977295L1023.851621 627.302305C1023.850597 697.946248 982.196918 767.455345 911.553998 767.455345zM984.876957 332.72622 857.450776 203.75587c-12.491499-12.491499-12.491499-33.491789 0-45.982264 6.245238-6.245238 14.427594-9.751085 22.608927-9.751085 8.181333 0 8.300037 2.931772 14.546298 9.17701l64.776306 72.65781 0-114.194832c0-35.264155-12.564154-51.219545-47.829332-51.219545L144.093792 64.442964c-35.264155 0-79.081103 15.954367-79.081103 51.219545L65.012689 275.550009c0 0 4.053316 31.977295-30.829146 31.977295s-33.639145-31.977295-33.639145-31.977295l0-159.8875c0-70.643943 72.907497-115.687836 143.549394-115.687836l767.460206 0c70.643943 0 112.297622 45.043892 112.297622 115.687836l0 191.859679c0 0 0.748037 22.274306-11.529591 28.496008C997.705124 343.424886 984.876957 332.72622 984.876957 332.72622z"  horiz-adv-x="1024" />

    
    <glyph glyph-name="xiaoxi" unicode="&#59026;" d="M883.929 762.963l-744.464 0c-75.374 0-137.043-61.668-137.043-137.043l0-483.356c0-75.374 61.668-137.043 137.043-137.043l744.464 0c75.374 0 137.043 61.668 137.043 137.043l0 483.356c0 75.374-61.668 137.043-137.043 137.043zM139.465 691.867l744.464 0c17.463 0 33.982-6.901 46.513-19.433 4.689-4.689 8.588-9.936 11.634-15.582-1.587-0.781-3.123-1.685-4.593-2.714l-425.802-298.151-425.802 298.15c-1.463 1.025-2.99 1.926-4.569 2.703 3.047 5.65 6.948 10.901 11.641 15.594 12.532 12.53 29.052 19.433 46.514 19.433zM930.442 96.051c-12.531-12.531-29.051-19.433-46.513-19.433l-744.464 0c-17.463 0-33.982 6.901-46.513 19.434s-19.434 29.051-19.434 46.513l0 439.658 418.923-293.317c0.388-0.27 0.785-0.528 1.239-0.817 5.027-3.187 10.938-4.967 17.062-5.131l1.842-0.001c6.069 0.153 11.969 1.918 17.073 5.115l0.038 0.023c0.446 0.286 0.841 0.542 1.247 0.826l0.161 0.113 0.362 0.239 418.409 292.972 0-439.681c0.001-17.463-6.9-33.982-19.433-46.513z"  horiz-adv-x="1024" />

    
    <glyph glyph-name="lingdang52" unicode="&#59025;" d="M819.2 211.9l0 240.367c0 111.479-60.279 201.114-154.01 247.945-18.432 73.25-79.804 127.522-153.19 127.522-71.202 0-129.024-52.087-147.251-124.655-97.143-45.943-159.949-137.011-159.949-250.812l0-240.026c-55.433-12.425-94.14-57.003-94.14-113.323l0-41.028c0-35.021 29.423-63.556 65.536-63.556l271.565 0c-1.98-6.349-4.028-12.834-4.028-19.934 0-37.683 30.583-68.267 68.267-68.267s68.267 30.583 68.267 68.267c0 7.1-2.048 13.585-4.028 20.002l271.565 0c36.113 0 65.536 28.535 65.536 63.556l0 41.028c0 55.774-38.093 100.147-94.14 112.913zM512 759.467c23.62 0 45.397-11.127 61.781-28.74-19.797 3.277-40.414 5.188-61.781 5.188-20.412 0-40.004-1.98-58.982-4.983 15.223 17.681 35.84 28.535 58.982 28.535zM845.073 62.669l-666.146-4.71 0 41.028c0 28.535 23.757 48.469 60.006 48.469l34.133 0 0 304.811c0 126.839 98.236 215.381 238.933 215.381s238.933-88.542 238.933-215.381l0-267.196-330.752 0c-18.842 0-34.133-15.292-34.133-34.133s15.292-34.133 34.133-34.133l421.001 0c2.321-5.461 3.891-11.401 3.891-17.886l0-36.25z"  horiz-adv-x="1024" />

    
    <glyph glyph-name="remind" unicode="&#59024;" d="M896 668.896c-8.192 0-16.384 3.136-22.624 9.376l-96 96c-12.512 12.512-12.512 32.736 0 45.248s32.736 12.512 45.248 0l96-96c12.512-12.512 12.512-32.736 0-45.248C912.384 672.032 904.192 668.896 896 668.896zM129.216 670.88c-8.192 0-16.384 3.136-22.624 9.376-12.512 12.512-12.512 32.736 0 45.248l96 96c12.512 12.512 32.736 12.512 45.248 0 12.512-12.512 12.512-32.736 0-45.248l-96-96C145.6 673.984 137.408 670.88 129.216 670.88zM726.624 550.272c12.512 12.512 12.512 32.736 0 45.248s-32.736 12.512-45.248 0l-128-128c-0.096-0.064-0.096-0.192-0.192-0.288-12.576 6.016-26.4 9.664-41.184 9.664s-28.672-3.648-41.184-9.664c-0.064 0.096-0.096 0.192-0.192 0.288l-96 96c-12.512 12.512-32.736 12.512-45.248 0s-12.512-32.736 0-45.248l96-96c0.064-0.064 0.192-0.096 0.288-0.192C419.648 409.568 416 395.712 416 380.896c0-52.928 43.072-96 96-96 52.928 0 96 43.104 96 96 0 14.784-3.648 28.672-9.664 41.184 0.096 0.064 0.192 0.096 0.288 0.192L726.624 550.272zM512 348.864c-17.632 0-32 14.368-32 32s14.368 32 32 32 32-14.368 32-32S529.632 348.864 512 348.864zM506.848 380.896M809.888 91.136C882.816 166.048 928 268.288 928 380.896c0 229.376-186.624 416-416 416s-416-186.624-416-416c0-113.376 45.696-216.192 119.52-291.328l-48.896-73.984c-9.728-14.752-5.696-34.624 9.056-44.32 5.44-3.584 11.552-5.312 17.6-5.312 10.4 0 20.576 4.992 26.72 14.336l44.352 67.168c69.28-51.584 154.816-82.56 247.648-82.56 93.568 0 179.744 31.424 249.312 83.808l45.376-66.56c6.176-9.056 16.256-13.984 26.464-13.984 6.208 0 12.48 1.856 17.984 5.6 14.624 9.984 18.368 29.888 8.448 44.448L809.888 91.136zM160 380.896c0 194.08 157.92 352 352 352 194.048 0 352-157.92 352-352s-157.952-352-352-352C317.92 28.864 160 186.816 160 380.896z"  horiz-adv-x="1024" />

    
    <glyph glyph-name="set" unicode="&#59023;" d="M988.438 449.438c-3.75 20.813-23.813 42-44.625 46.688l-15.563 3.562c-36.563 11.063-69.001 35.25-89.625 70.875-20.625 35.813-25.5 76.5-16.5 113.813l0 0 4.875 14.625c6.188 20.25-1.875 48.188-18.188 62.063 0 0-14.625 12.375-55.875 36.188-41.25 23.625-59.063 30.188-59.063 30.188-20.063 7.313-48.188 0.375-62.813-15.188l-10.875-11.625c-27.75-26.25-65.063-42.188-106.313-42.188s-78.938 16.125-106.688 42.562l-10.5 11.25c-14.438 15.563-42.75 22.5-62.813 15.188 0 0-18-6.563-59.25-30.188-41.25-24-55.687-36.375-55.687-36.375-16.313-13.687-24.375-41.438-18.188-61.875l4.5-14.813c8.813-37.313 4.125-77.813-16.5-113.625s-53.438-60.187-90.188-71.063l-15.001-3.375c-20.625-4.688-40.875-25.687-44.625-46.688 0 0-3.375-18.75-3.375-66.375 0-47.625 3.375-66.375 3.375-66.375 3.75-20.999 23.812-42 44.625-46.688l14.625-3.375c36.75-10.875 69.75-35.25 90.375-71.25 20.625-35.812 25.5-76.5 16.5-113.813l0 0-4.313-14.438c-6.188-20.25 1.875-48.188 18.188-62.063 0 0 14.625-12.375 55.875-36.188 41.25-23.813 59.063-30.188 59.063-30.188 20.063-7.313 48.188-0.375 62.813 15.188l10.313 11.063c27.938 26.438 65.438 42.563 106.875 42.563 41.438 0 79.125-16.313 106.875-42.75l0 0 10.313-11.063c14.438-15.563 42.75-22.5 62.813-15.188 0 0 18 6.563 59.25 30.188 41.25 23.813 55.687 36.188 55.687 36.188 16.313 13.687 24.375 41.625 18.188 62.063l-4.5 15.001c-8.813 37.125-4.125 77.625 16.5 113.25 20.625 35.812 53.625 60.375 90.375 71.25l0 0 14.625 3.375c20.625 4.688 40.875 25.687 44.625 46.688 0 0 3.375 18.75 3.375 66.375-0.188 47.813-3.563 66.563-3.563 66.563l0 0zM513.875 192.375c-105.188 0-190.688 85.313-190.688 190.688 0 105.188 85.313 190.5 190.688 190.5 105.188 0 190.688-85.313 190.688-190.688-0.187-105.188-85.5-190.5-190.688-190.5l0 0zM513.875 192.375z"  horiz-adv-x="1024" />

    
    <glyph glyph-name="shezhi" unicode="&#59022;" d="M652.861-47.874c-0.001 0-0.001 0-0.003 0-16.858 0.001-33.241 6.973-43.824 18.647-14.419 15.808-60.102 56.914-97.497 56.914-37.135 0-83.524-41.344-96.848-55.827-10.558-11.477-26.828-18.329-43.522-18.329-7.951 0-15.455 1.526-22.304 4.537l-1.199 0.526-113.663 63.558-1.129 0.789c-20.693 14.485-28.567 42.816-18.316 65.901 0.078 0.179 10.483 24.186 10.483 46.077 0 66.435-54.049 120.485-120.484 120.485l-4.028 0c-0.244-0.005-0.489-0.009-0.733-0.009-19.03 0-34.525 16.905-39.475 43.067-0.396 2.094-9.7 51.721-9.7 90.82 0 39.099 9.302 88.726 9.698 90.82 5.012 26.496 20.845 43.516 40.209 43.058l4.029 0c66.436 0 120.484 54.049 120.484 120.485 0 21.886-10.4 45.888-10.506 46.128-10.24 23.062-2.314 51.39 18.464 65.83l1.178 0.818 119.956 65.887 1.248 0.531c6.754 2.879 14.153 4.34 21.99 4.34 16.655 0 32.959-6.703 43.614-17.932 14.197-14.866 59.074-53.527 95.396-53.527 35.981 0 80.583 37.898 94.733 52.501 10.594 11.002 26.782 17.588 43.275 17.588 7.996 0 15.532-1.513 22.395-4.496l1.215-0.528 115.856-64.367 1.145-0.799c20.727-14.467 28.622-42.798 18.362-65.9-0.077-0.177-10.482-24.185-10.482-46.075 0-66.436 54.049-120.485 120.484-120.485l4.028 0c19.339 0.43 35.195-16.561 40.209-43.056 0.395-2.095 9.699-51.722 9.699-90.821 0-39.1-9.305-88.726-9.7-90.82-5.014-26.497-20.866-43.454-40.209-43.057l-4.027 0c-66.435 0-120.484-54.05-120.484-120.485 0-21.886 10.399-45.887 10.505-46.127 10.235-23.047 2.327-51.377-18.42-65.834l-1.161-0.809-117.812-65.115-1.23-0.53c-6.74-2.908-14.11-4.381-21.9-4.381zM649.282 7.631c0.526-0.345 2.013-0.93 3.577-0.93 0.064 0 0.124 0.001 0.178 0.003l110.071 60.837c-2.656 6.173-14.807 36.127-14.807 67.376 0 93.447 73.604 170.029 165.879 174.823 1.328 7.332 8.54 48.583 8.54 79.539 0 30.949-7.209 72.187-8.539 79.539-92.275 4.794-165.881 81.376-165.881 174.823 0 31.291 12.187 61.289 14.822 67.41l-108.285 60.163c-0.126 0.009-0.276 0.015-0.452 0.015-1.845 0-3.571-0.672-4.143-1.057-1.817-1.868-17.515-17.786-40.06-33.646-33.375-23.479-64.933-35.386-93.804-35.386-29.151 0-60.964 12.14-94.554 36.082-22.684 16.169-38.453 32.39-40.274 34.291-0.577 0.394-2.321 1.086-4.181 1.086-0.148 0-0.277-0.004-0.387-0.012l-112.16-61.604c2.686-6.25 14.794-36.153 14.794-67.342 0-93.447-73.606-170.029-165.882-174.823-1.329-7.34-8.538-48.587-8.538-79.539 0-30.949 7.209-72.187 8.54-79.539 92.275-4.794 165.879-81.376 165.879-174.823 0-31.35-12.234-61.402-14.839-67.446l106.155-59.359c0.069-0.003 0.148-0.005 0.235-0.005 1.552 0 3.024 0.569 3.546 0.906 1.984 2.133 17.842 18.914 40.678 35.651 34.042 24.948 66.39 37.599 96.147 37.599 30.041 0 62.635-12.892 96.876-38.317 22.967-17.056 38.886-34.154 40.869-36.316zM511.929 229.434c-88.475 0-160.454 71.98-160.454 160.454s71.98 160.454 160.454 160.454c88.475 0 160.454-71.98 160.454-160.454 0-88.474-71.98-160.454-160.454-160.454zM511.929 495.765c-58.382 0-105.878-47.497-105.878-105.878s47.497-105.878 105.878-105.878c58.382 0 105.878 47.497 105.878 105.878 0 58.382-47.495 105.878-105.878 105.878z"  horiz-adv-x="1024" />

    
    <glyph glyph-name="news" unicode="&#59021;" d="M896 640 896 768 0 768l0-704c0-35.344 28.656-64 64-64l864 0c53.024 0 96 42.976 96 96L1024 640 896 640zM832 64 64 64 64 704l768 0L832 64zM128 576l640 0 0-64L128 512 128 576zM512 448l256 0 0-64L512 384 512 448zM512 320l256 0 0-64L512 256 512 320zM512 192l192 0 0-64L512 128 512 192zM128 448l320 0 0-320L128 128 128 448z"  horiz-adv-x="1024" />

    
    <glyph glyph-name="voicefill" unicode="&#59020;" d="M512 190.272c105.888 0 192 86.112 192 192L704 638.048c0 105.888-86.112 192-192 192s-192-86.112-192-192l0-255.776C320 276.416 406.112 190.272 512 190.272zM864 416.224 864 544c0 17.664-14.304 32-32 32s-32-14.336-32-32l0-127.776c0-160.16-129.184-290.464-288-290.464-158.784 0-288 130.304-288 290.464L224 544c0 17.664-14.336 32-32 32s-32-14.336-32-32l0-127.776c0-184.608 140.864-336.48 320-352.832L480 0 288 0c-17.664 0-32-14.304-32-32s14.336-32 32-32l448 0c17.696 0 32 14.304 32 32s-14.304 32-32 32l-192 0 0 63.36C723.136 79.744 864 231.616 864 416.224z"  horiz-adv-x="1024" />

    
    <glyph glyph-name="voice" unicode="&#59019;" d="M511.936 190.272c-105.888 0-192 86.112-192 192L319.936 638.048c0 105.888 86.112 192 192 192s192-86.112 192-192l0-255.776C703.936 276.416 617.824 190.272 511.936 190.272zM511.936 766.048c-70.592 0-128-57.408-128-128l0-255.776c0-70.592 57.408-128 128-128 70.592 0 128 57.408 128 128L639.936 638.048C639.936 708.64 582.528 766.048 511.936 766.048zM864 416.224 864 544c0 17.664-14.304 32-32 32s-32-14.336-32-32l0-127.776c0-160.16-129.184-290.464-288-290.464-158.784 0-288 130.304-288 290.464L224 544c0 17.664-14.336 32-32 32s-32-14.336-32-32l0-127.776c0-184.608 140.864-336.48 320-352.832L480 0 288 0c-17.664 0-32-14.304-32-32s14.336-32 32-32l448 0c17.696 0 32 14.304 32 32s-14.304 32-32 32l-192 0 0 63.36C723.136 79.744 864 231.616 864 416.224z"  horiz-adv-x="1024" />

    
    </font>
</defs>
</svg>
